<svg id="Layer_1" data-name="Layer 1" xmlns="http://www.w3.org/2000/svg" viewBox="0 0 512 512"><defs><style>.cls-1{fill:#2b374f;}</style></defs><title>lips-glyph</title><path class="cls-1" d="M15,192,78.48,205.6a94.41,94.41,0,0,0,44.41-1.22l13.56-3.7a119.22,119.22,0,0,1,71.82,2.76l22.88,8.17a94.2,94.2,0,0,0,63.2,0l22.88-8.17A119.19,119.19,0,0,1,389,200.67l11.71,3.2a94.05,94.05,0,0,0,47.51.5l58.16-14.54C485.21,165.87,405,81.52,327.37,81.52c-2.42,0-24.52.62-53,22-4.13,3.1-6.87,3.42-12.18,3.88H250.3c-5-.43-7.83-.67-12.1-3.87-28.47-21.36-50.57-22-53-22-76,0-154.48,80.86-177.66,106.74Z"/><path class="cls-1" d="M410,232,372.61,368.64l-39.16-143.2c-2.52.71-5,1.49-7.5,2.33L303.08,236a121,121,0,0,1-80.65,0l-22.88-8.21A92.69,92.69,0,0,0,179.78,223L140,368.57l-37-135.19a118.6,118.6,0,0,1-29.86-2.52L8,217a17.06,17.06,0,0,1-3-1.1l-5-2.46c17.9,57.26,54.93,101.65,106.24,130L127.5,421a12.94,12.94,0,0,0,24.94,0L167,367.67c27.4,7.3,57.26,11.11,89.24,11.11s61.84-3.81,89.24-11.11L360.14,421a12.94,12.94,0,0,0,24.94,0l21.26-77.61c50.79-28,87.63-71.86,105.66-128.27l-57.45,14.35A120.23,120.23,0,0,1,410,232a.39.39,0,0,0-.26-.06Z"/></svg>