<?xml version="1.0" encoding="utf-8"?>
<!-- Generator: Adobe Illustrator 21.1.0, SVG Export Plug-In . SVG Version: 6.00 Build 0)  -->
<svg version="1.1" id="Layer_1" xmlns="http://www.w3.org/2000/svg" xmlns:xlink="http://www.w3.org/1999/xlink" x="0px" y="0px"
	 viewBox="0 0 76 56" enable-background="new 0 0 76 56" xml:space="preserve">
<g>
	<path fill="#383C45" d="M2,22.4347c0.7810001-1.8969994,1.5-3.822998,2.3629999-5.6809998
		c0.6529999-1.4069977,1.1610003-1.4889984,2.526-0.7279968c1.6789999,0.935997,3.6359997,0.6939964,4.9370003-0.6100006
		c1.3449993-1.3470001,1.5430002-3.3010025,0.5109997-5.0340004c-0.8029995-1.3479996-0.75-1.8320007,0.684-2.5279999
		c1.8480005-0.8959999,3.7589989-1.6750031,5.6879997-2.3830032c1.2380009-0.4539986,1.7709999-0.0749969,2.0869999,1.1620026
		c0.5300007,2.0740013,1.9969997,3.3009987,3.9519997,3.3019981c1.9490013,0.0020027,3.4380016-1.2389984,3.960001-3.2980003
		c0.3050003-1.2019997,0.8349991-1.612999,1.9640007-1.204998c1.9329987,0.6989975,3.8449974,1.4770012,5.7039986,2.3520012
		c1.1650009,0.5480003,1.2400017,1.2279968,0.5229988,2.3190002c-1.2339973,1.8779984-1.112999,3.8929977,0.3220024,5.3269997
		c1.4179993,1.4189987,3.4840012,1.5429993,5.3330002,0.3209991c1.0779991-0.7130013,1.6660004-0.5890007,2.329998,0.5149994
		c0.2439995,0.4039993,0.4500008,0.8310013,0.5790024,1.0719986c-3.0909996,3.1090012-6.1020012,6.1380005-9.1410027,9.1950016
		C35.7179985,22.8307037,33.9069977,19.835701,30.573,17.880703c-2.4610004-1.4440002-5.1170006-1.8660011-7.9209995-1.3970032
		c-5.441,0.9090004-9.5080004,5.8360023-9.4890003,11.4920006c0.0199995,5.8349991,4.1099987,10.4209976,10.230999,11.4690018
		c0.0140018,0.067997,0.0630016,0.1819992,0.0380001,0.2009964c-1.8639984,1.4520035-2.2950001,3.6110001-2.8619995,5.7140007
		c-0.4519997,1.6749992-0.9619999,3.3330002-1.5480003,5.3480034c-2.2159996-1.0220032-4.2799997-1.9050026-6.2729998-2.9250031
		c-0.9509993-0.4860001-0.7249994-1.2999992-0.2819996-2.151001c1.3620005-2.6169968-0.1000004-5.5649986-2.9809999-5.9129982
		c-0.8099995-0.0979996-1.7270002,0.170002-2.5079999,0.4860001C5.6900001,40.7257004,5.1830001,40.7087021,4.5840001,39.4417
		c-0.8450003-1.7859993-1.6130002-3.6170006-2.27-5.4799995c-0.4530001-1.2859993-0.0730002-1.7730026,1.2669997-2.1359997
		c1.993-0.5389996,3.1950002-2.0090008,3.2000003-3.9150009C6.7859998,26.0017014,5.573,24.5557003,3.615,23.9447002
		c-0.589-0.184-1.079-0.6799984-1.615-1.032999V22.4347z"/>
	<path fill="#383C45" d="M73.5,10.7563019c-1.1810074,1.2790031-2.3610001,2.5580025-3.6590042,3.9650002
		c-2.2249985-3.7999992-4.9840012-6.6079979-8.5429955-8.6759987c1.1429977-1.1990013,2.257-2.4659996,3.5040016-3.5859985
		c0.2449951-0.2200012,1.0950012-0.0170021,1.5079956,0.2419968c2.901001,1.8180008,5.3139954,4.1290016,6.9349976,7.1920013
		c0.0719986,0.1350021,0.1699982,0.2579994,0.2550049,0.3860016V10.7563019z"/>
	<path fill="#383C45" d="M33.350502,50.7524986c-2.0660019-3.5649986-4.8600025-6.3609962-8.8650017-8.6839981
		c0.4979992-0.2789993,0.9529991-0.420002,1.2529984-0.7179985c11.1359978-11.1060009,22.2680016-22.2169991,33.3610001-33.368
		c0.8279991-0.8330002,1.4480019-0.8520012,2.3269997-0.2410011c2.6710052,1.8590012,4.9580002,4.0830002,6.697998,6.8500023
		c0.3809967,0.605999,0.4400024,1.0739975-0.1480026,1.6599998C56.5545006,27.6335011,45.1544991,39.0385017,33.748497,50.4365005
		C33.6384964,50.5455017,33.5045013,50.6315002,33.350502,50.7524986"/>
	<path fill="#383C45" d="M23.9957008,43.0578003c3.7219982,2.1389999,6.493,4.8899994,8.605999,8.5940018
		c-2.3990002,0.6829987-4.5599995,1.3159981-6.7360001,1.8919983c-0.2199993,0.0589981-0.5799999-0.1619987-0.7840004-0.3520012
		c-0.5229988-0.4849968-0.9160004-1.1469994-1.5-1.519001c-1.5149994-0.9649963-1.6089993-2.159996-1.0209999-3.718998
		C23.1296997,46.4428024,23.481699,44.8498001,23.9957008,43.0578003"/>
	<path fill="#383C45" d="M20.6669998,55c0.3579998-1.4259987,0.6489983-2.5859985,1.0189991-4.0579987
		c0.9799995,1.0900002,1.8069992,2.0089989,2.7560005,3.0639992C23.2589989,54.3180008,22.112999,54.6189995,20.6669998,55"/>
</g>
</svg>
