<?xml version="1.0" encoding="utf-8"?>
<!-- Generator: Adobe Illustrator 21.0.2, SVG Export Plug-In . SVG Version: 6.00 Build 0)  -->
<svg version="1.1" id="Layer_1" xmlns="http://www.w3.org/2000/svg" xmlns:xlink="http://www.w3.org/1999/xlink" x="0px" y="0px"
	 width="2272px" height="1872px" viewBox="0 0 2272 1872" enable-background="new 0 0 2272 1872" xml:space="preserve">
<g>
	<path fill="#2D2D2D" d="M418.1,610.3c135.2,0,244.8-21.1,244.8-47.2c0-13.6-29.8-25.8-77.6-34.5l-11.3-119
		c-5.6-59.4-67-96.6-122.3-73.9l0,0c-21.6,8.9-45.8,8.9-67.4,0l0,0c-55.2-22.6-116.7,14.5-122.3,73.9l-11.3,119
		c-47.7,8.6-77.6,20.9-77.6,34.5C173.3,589.2,282.9,610.3,418.1,610.3z"/>
	<path fill="#2D2D2D" d="M567.9,730.6l65.4-131.9c-11,3.6-24.3,6.9-39.8,9.9c-11.4,2.2-23.8,4.2-36.9,5.9
		c-4.4,17.1-14.5,36.4-37.7,43.9c-53.5,17.3-75.6-12.7-84.5-35.8c-5.4,0.1-10.9,0.1-16.4,0.1s-11,0-16.4-0.1
		c-8.9,23.1-31,53.1-84.5,35.8c-23.2-7.5-33.3-26.7-37.7-43.9c-13.1-1.7-25.5-3.7-36.9-5.9c-15.6-3-28.8-6.3-39.8-9.9l65.4,131.9
		c-90.8,0-113.3,93.2-113.3,93.2h263.1h263.1C681.2,823.8,658.8,730.6,567.9,730.6z"/>
</g>
<path fill="#2D2D2D" d="M1136,456.7c-90.6,0-170.1,47.9-214.4,119.7c44.4,71.8,123.8,119.7,214.4,119.7s170.1-47.9,214.4-119.7
	C1306.1,504.6,1226.6,456.7,1136,456.7z M1168.6,671.5l-12.2-57.6c13.3-7.2,22.3-21.3,22.3-37.5c0-23.6-19.1-42.7-42.7-42.7
	s-42.7,19.1-42.7,42.7c0,16.2,9,30.3,22.3,37.5l-12.2,57.6c-39.5-13.5-67.9-51-67.9-95.1c0-55.5,45-100.5,100.5-100.5
	s100.5,45,100.5,100.5C1236.5,620.5,1208.1,658,1168.6,671.5z"/>
<g>
	<path fill="#2D2D2D" d="M1900.2,674.2c-6.6-6-15.1-9.1-23.9-8.7c-8.9,0.4-17.1,4.2-23.1,10.8c-12.4,13.5-11.5,34.6,2.1,47
		c13.5,12.4,34.6,11.5,47-2.1C1914.6,707.7,1913.7,686.6,1900.2,674.2z"/>
	<path fill="#2D2D2D" d="M2102,576c0-15.7-31.9-29.7-82.1-39l-39.2-163.6c-8.4-35.2-48.8-51.8-79.5-32.7l0,0
		c-17.1,10.6-38.8,10.6-55.9,0l0,0c-30.7-19.1-71.1-2.5-79.5,32.7l-39.2,163.6c-50.2,9.3-82.1,23.3-82.1,39
		c0,16.5,35.6,31.2,90.6,40.5l24.4,55.3c0,0-95.4,33.1-95.4,148.4h209h209c0-115.2-95.4-148.4-95.4-148.4l24.4-55.3
		C2066.4,607.2,2102,592.6,2102,576z M1915.7,733.6L1915.7,733.6c-9.6,10.5-22.6,16.1-35.8,16.7c-10.3,0.4-20.7-2.2-29.8-7.9
		l-46.5,50.7l-13.5-12.4l46.5-50.7c-14.8-19.5-14.1-47.4,3-66.1c9.3-10.2,22-16.1,35.8-16.7c13.8-0.6,26.9,4.2,37.1,13.5
		C1933.5,679.9,1934.9,712.6,1915.7,733.6z"/>
</g>
<g>
	<path fill="#2D2D2D" d="M1296,1100.9c-30.8-28.2-70.7-42.7-112.4-40.9c-41.7,1.8-80.2,19.8-108.4,50.5
		c-51.8,56.5-54,141.2-9.1,200.2l-140.8,153.6l40.8,37.4l140.8-153.6c27.5,17.4,59.1,25.3,90.3,24c40-1.7,79.3-18.7,108.4-50.5v0
		C1363.8,1258.2,1359.5,1159.1,1296,1100.9z M1264.8,1284.2c-37.6,41-101.5,43.8-142.5,6.2s-43.8-101.5-6.2-142.5
		c18.2-19.9,43-31.4,70-32.6c26.9-1.2,52.7,8.2,72.5,26.4C1299.6,1179.3,1302.4,1243.3,1264.8,1284.2z"/>
	<path fill="#2D2D2D" d="M1223.4,1216.1c-19.4,0-35.2-15.8-35.2-35.2c0-16.3,11.1-30.1,26.2-34c-6.7-2.1-13.9-3.2-21.3-3.2
		c-40,0-72.4,32.4-72.4,72.4c0,40,32.4,72.4,72.4,72.4c40,0,72.4-32.4,72.4-72.4c0-11.2-2.6-21.9-7.1-31.4
		C1256.5,1202.4,1241.5,1216.1,1223.4,1216.1z"/>
</g>
<g>
	<path fill="#2D2D2D" d="M585.7,1252.2l-44.8-187c-9.6-40.2-55.8-59.2-90.9-37.4l0,0c-19.6,12.1-44.3,12.1-63.9,0l0,0
		c-35.1-21.8-81.3-2.8-90.9,37.4l-44.8,187c-57.3,10.6-93.8,26.6-93.8,44.5c0,32.1,117,58,261.4,58c144.4,0,261.4-26,261.4-58
		C679.5,1278.8,643,1262.8,585.7,1252.2z"/>
	<path fill="#2D2D2D" d="M552.1,1362.7c-30.9,0-58.2,15.6-74.5,39.4H456v-22.3h-74.6v22.3h-22.9c-16.2-23.8-43.5-39.4-74.5-39.4
		c-49.8,0-90.1,40.3-90.1,90.1c0,49.8,40.3,90.1,90.1,90.1c46.1,0,84.2-34.7,89.5-79.4h89.1c5.3,44.7,43.3,79.4,89.5,79.4
		c49.8,0,90.1-40.3,90.1-90.1C642.2,1403.1,601.8,1362.7,552.1,1362.7z M284.1,1514.9c-34.2,0-62-27.8-62-62c0-34.2,27.8-62,62-62
		c34.2,0,62,27.8,62,62C346.1,1487.1,318.3,1514.9,284.1,1514.9z M552.1,1514.9c-34.2,0-62-27.8-62-62c0-34.2,27.8-62,62-62
		s62,27.8,62,62C614.1,1487.1,586.3,1514.9,552.1,1514.9z"/>
</g>
<g>
	<path fill="#2D2D2D" d="M2012.7,1193.6C2012.7,1193.6,2012.7,1193.6,2012.7,1193.6l-31.9-133.2c-8.1-33.8-46.8-49.7-76.3-31.4h0
		c-16.4,10.2-37.2,10.2-53.7,0h0c-29.5-18.3-68.2-2.4-76.3,31.4l-32.2,134.5l0,0C1742.3,1194.9,1872.5,1246.4,2012.7,1193.6z"/>
	<path fill="#2D2D2D" d="M2038.8,1287.9c36.2-8.7,58.4-20.3,58.4-33.1c0-15-30.6-28.4-78.6-37.4c3,12.2,6,23.9,6,23.9
		c-145.8,55.9-293.5,0-293.5,0l5.8-24c-48.1,8.9-78.7,22.4-78.7,37.4c0,12.8,22.1,24.4,58.4,33.1l-78.2,39l113.1,181.4h252.4
		l113.1-181.4L2038.8,1287.9z M1961.5,1326.9c0,46.3-37.5,83.8-83.8,83.8c-46.3,0-83.8-37.5-83.8-83.8c0-9.3,1.5-18.3,4.4-26.6
		c12.8,1.1,26.3,2,40.2,2.5c-4.3,7-6.8,15.3-6.8,24.1c0,25.5,20.6,46.1,46.1,46.1c25.5,0,46.1-20.6,46.1-46.1c0-1.9-0.1-3.7-0.3-5.5
		c-3.9,3.2-8.9,5.1-14.3,5.1c-12.6,0-22.8-10.2-22.8-22.8c0,0,0-0.1,0-0.1c24.9-0.2,48.8-1.3,70.9-3.3
		C1959.9,1308.6,1961.5,1317.6,1961.5,1326.9z M1877.7,1480.7c-84.8,0-153.8-69-153.8-153.8c0-12.3,1.5-24.5,4.4-36.4
		c3.6,0.7,7.3,1.5,11.1,2.1c-2.7,11-4.1,22.4-4.1,34.3c0,78.7,63.8,142.5,142.5,142.5c78.7,0,142.5-63.8,142.5-142.5
		c0-11.8-1.4-23.3-4.1-34.3c3.8-0.7,7.5-1.4,11.1-2.1c2.9,11.9,4.4,24.1,4.4,36.4C2031.5,1411.7,1962.5,1480.7,1877.7,1480.7z"/>
</g>
</svg>
