<?xml version="1.0" encoding="utf-8"?>
<!-- Generator: Adobe Illustrator 17.1.0, SVG Export Plug-In . SVG Version: 6.00 Build 0)  -->
<!DOCTYPE svg PUBLIC "-//W3C//DTD SVG 1.1//EN" "http://www.w3.org/Graphics/SVG/1.1/DTD/svg11.dtd">
<svg version="1.1" id="Layer_1" xmlns="http://www.w3.org/2000/svg" xmlns:xlink="http://www.w3.org/1999/xlink" x="0px" y="0px"
	 width="24px" height="24px" viewBox="0 0 24 24" style="enable-background:new 0 0 24 24;" xml:space="preserve">
<style type="text/css">
	.st0{fill-rule:evenodd;clip-rule:evenodd;}
</style>
<path class="st0" d="M11.2,3.2c-2.4,2.5-2.5,5.1,0.2,6.5c-0.1-1.3,1.8-2.8,1.8-2.8s0,1,0.1,1.3c0,0,0.5,0.1,1,0.3
	C14.7,8.7,15,9,15,9C15.3,8.9,16,8.3,16,8.3s-0.1,2.4-1.2,3.1c2.7,1.4,4.8-0.3,5.3-3.7c1.5,0.7,5.5,5.7,3,11.6
	c-0.9-3-4.9-2.7-5.9-1.3c-1.6-1.7-4.7-1-5.3,1.5c-0.5-2-2.5-1.3-3.7,0.5c0-0.8,1.4-3.3-2.2-3.3c1.7-1.3,1-4.7-1.6-4.7
	C5.6,10,3.5,6.2,0,7.7C3.4,2.2,9.7,2.4,11.2,3.2z"/>
</svg>
