<svg xmlns="http://www.w3.org/2000/svg" xmlns:xlink="http://www.w3.org/1999/xlink" version="1.1" x="0px" y="0px" viewBox="0 0 100 125" style="enable-background:new 0 0 100 100;" xml:space="preserve"><g><path d="M87,71V21c0-1.1-0.9-2-2-2H15c-1.1,0-2,0.9-2,2v50c0,1.1,0.9,2,2,2h33v4H37c-1.1,0-2,0.9-2,2l0,0c0,1.1,0.9,2,2,2h26   c1.1,0,2-0.9,2-2l0,0c0-1.1-0.9-2-2-2H52v-4h33C86.1,73,87,72.1,87,71z M17,23h66v46H17V23z"/><path d="M61,65h18V27H61V65z M65,31h10v30H65V31z"/><rect x="21" y="27" width="20" height="4"/><rect x="45" y="27" width="12" height="4"/><path d="M21,65h36V35H21V65z M25,39h28v22H25V39z"/></g><text x="0" y="115" fill="#000000" font-size="5px" font-weight="bold" font-family="'Helvetica Neue', Helvetica, Arial-Unicode, Arial, Sans-serif">Created by Deivid Sáenz</text><text x="0" y="120" fill="#000000" font-size="5px" font-weight="bold" font-family="'Helvetica Neue', Helvetica, Arial-Unicode, Arial, Sans-serif">from the Noun Project</text></svg>