<svg xmlns="http://www.w3.org/2000/svg" xmlns:xlink="http://www.w3.org/1999/xlink" version="1.1" x="0px" y="0px" viewBox="0 0 100 125" enable-background="new 0 0 100 100" xml:space="preserve"><g><path fill="#000000" d="M35.407,9.777c-0.888-1.448-2.474-2.396-4.287-2.396l-8.187,0.012c-2.88,0-5.213,2.361-5.213,5.274   c0,1.024,0.305,1.973,0.798,2.771l0.049,0.076c2.425,3.49,3.835,7.697,3.835,12.249c0,7.725-4.088,14.51-10.177,18.219   l-0.078,0.024c-1.167,0.756-1.953,2.05-1.953,3.592v2.432h36.962V32.831c0,0,0.053-2.13-1.37-4.759L35.407,9.777z"/><path fill="#000000" d="M64.849,9.777c0.898-1.448,2.486-2.396,4.288-2.396l8.21,0.012c2.867,0,5.2,2.361,5.2,5.274   c0,1.024-0.28,1.973-0.773,2.771l-0.075,0.076c-2.398,3.49-3.835,7.697-3.835,12.249c0,7.725,4.09,14.51,10.202,18.217l0.052,0.024   c1.193,0.758,1.98,2.052,1.98,3.594v2.432H53.097V32.831c0,0-0.025-2.13,1.395-4.759L64.849,9.777z"/></g><rect x="53.097" y="59.372" fill="#000000" width="36.99" height="5.395"/><g><path fill="#000000" d="M90.087,72.544h-36.99v12.97c0,0-0.662,5.195,5.786,5.195h25.418c6.442,0,5.786-5.195,5.786-5.195V72.544z"/></g><rect x="10.167" y="59.372" fill="#000000" width="36.965" height="5.395"/><g><path fill="#000000" d="M47.133,72.544H10.168v12.97c0,0-0.672,5.195,5.773,5.195H41.36c6.433,0,5.773-5.195,5.773-5.195V72.544z"/></g><text x="0" y="115" fill="#000000" font-size="5px" font-weight="bold" font-family="'Helvetica Neue', Helvetica, Arial-Unicode, Arial, Sans-serif">Created by Arthur Lacôte</text><text x="0" y="120" fill="#000000" font-size="5px" font-weight="bold" font-family="'Helvetica Neue', Helvetica, Arial-Unicode, Arial, Sans-serif">from the Noun Project</text></svg>