<svg xmlns="http://www.w3.org/2000/svg" xmlns:xlink="http://www.w3.org/1999/xlink" version="1.1" x="0px" y="0px" viewBox="0 0 100 125" style="enable-background:new 0 0 100 100;" xml:space="preserve"><style type="text/css">
	.st0{fill-rule:evenodd;clip-rule:evenodd;}
</style><g><g><path class="st0" d="M70.8,21.1v-6.6c0-2.9-2.3-5.2-5.2-5.2H34.4c-2.9,0-5.2,2.3-5.2,5.2v6.6C19.7,27.7,13.5,38.6,13.5,51    c0,12.4,6.2,23.3,15.6,29.9v6.6c0,2.9,2.3,5.2,5.2,5.2h31.3c2.9,0,5.2-2.3,5.2-5.2v-6.6c9.4-6.6,15.6-17.5,15.6-29.9    C86.5,38.6,80.3,27.7,70.8,21.1z M50,77c-14.4,0-26-11.7-26-26c0-14.4,11.7-26,26-26c14.4,0,26,11.7,26,26C76,65.4,64.4,77,50,77z     M50,30.2c-2.9,0-5.2,2.3-5.2,5.2v13.5l-8.9,8.9c-0.9,0.9-1.5,2.2-1.5,3.7c0,2.9,2.3,5.2,5.2,5.2c1.4,0,2.7-0.6,3.7-1.5l10.4-10.4    c0.9-0.9,1.5-2.2,1.5-3.7V35.4C55.2,32.5,52.9,30.2,50,30.2z"/></g></g><text x="0" y="115" fill="#000000" font-size="5px" font-weight="bold" font-family="'Helvetica Neue', Helvetica, Arial-Unicode, Arial, Sans-serif">Created by  Thays Malcher</text><text x="0" y="120" fill="#000000" font-size="5px" font-weight="bold" font-family="'Helvetica Neue', Helvetica, Arial-Unicode, Arial, Sans-serif">from the Noun Project</text></svg>