<svg xmlns="http://www.w3.org/2000/svg" xmlns:xlink="http://www.w3.org/1999/xlink" version="1.1" x="0px" y="0px" viewBox="0 0 100 125" enable-background="new 0 0 100 100" xml:space="preserve"><path d="M82.809,49.438c0-2.396,1.927-2.827,1.927-2.827c1.368,0,2.138,0,2.138,0s1.009-7.304-1.969-13.125  c0.615-5.005-0.725-9.346-0.725-9.346l-2.998,0.621c0.358,1.731,0.559,3.307,0.631,4.745c-2.176-1.852-5.234-3.083-9.522-3.083  c-14.043,0-45.008,0-59.367,0c-0.172,0-0.337,0-0.501,0v-1.726H9.423v1.726c-1.246,0-1.938,0-1.938,0v13.448  c0,0,0.521,6.74,9.863,6.74c3.526,0,14.295,0,26.337,0v9.745c0,1.274,1.034,2.309,2.31,2.309h17.571l6.049,19.93H67.08v3.005h3.445  c0,0,2.119,0,5.016,0c3.849,0,9.072,0,12.544,0c3.226,0,3.899-3.777,3.899-3.777S82.809,51.833,82.809,49.438z M15.441,41.859  c-2.104,0-1.694-2.667-1.694-2.667s41.593,0,42.808,0c1.695,0,1.49,2.667,1.49,2.667S17.029,41.859,15.441,41.859z M48.722,55.348  c-0.95,0-1.72-0.771-1.72-1.72v-7.017c2.804,0,5.645,0,8.454,0c-0.495,3.609-3.189,5.806-3.189,5.806l1.889,1.651  c2.309-2.64,3.375-5.155,3.659-7.458c0.701,0,1.399,0,2.092,0l2.652,8.737H48.722z"/><text x="0" y="115" fill="#000000" font-size="5px" font-weight="bold" font-family="'Helvetica Neue', Helvetica, Arial-Unicode, Arial, Sans-serif">Created by David Wong</text><text x="0" y="120" fill="#000000" font-size="5px" font-weight="bold" font-family="'Helvetica Neue', Helvetica, Arial-Unicode, Arial, Sans-serif">from the Noun Project</text></svg>