<svg xmlns="http://www.w3.org/2000/svg" xmlns:xlink="http://www.w3.org/1999/xlink" version="1.1" x="0px" y="0px" viewBox="0 0 100 125" enable-background="new 0 0 100 100" xml:space="preserve"><g><circle cx="50" cy="48.13" r="8.438"/><path d="M44.037,35.064L30.9,6.868C15.6,14.054,5,30.569,5,47.444h30.938C35.938,41.819,39.255,37.312,44.037,35.064z"/><path d="M50,62.193c-2.618,0-5.062-0.731-7.162-1.978L27.061,86.844C33.779,90.831,41.62,93.132,50,93.132   c9.39,0,18.104-2.88,25.316-7.799L57.91,59.754C55.655,61.292,52.934,62.193,50,62.193z"/><path d="M64.062,47.444H95c0-16.875-10.599-33.218-25.9-40.403L55.963,34.894C60.744,37.141,64.062,41.819,64.062,47.444z"/></g><text x="0" y="115" fill="#000000" font-size="5px" font-weight="bold" font-family="'Helvetica Neue', Helvetica, Arial-Unicode, Arial, Sans-serif">Created by Anton Gajdosik</text><text x="0" y="120" fill="#000000" font-size="5px" font-weight="bold" font-family="'Helvetica Neue', Helvetica, Arial-Unicode, Arial, Sans-serif">from the Noun Project</text></svg>