<svg xmlns="http://www.w3.org/2000/svg" xmlns:xlink="http://www.w3.org/1999/xlink" version="1.1" x="0px" y="0px" viewBox="0 0 192 240" enable-background="new 0 0 192 192" xml:space="preserve"><g display="none"><g display="inline"><line fill="#000000" stroke="#E6E7E8" stroke-width="3" stroke-linejoin="round" stroke-miterlimit="10" x1="0" y1="0" x2="192" y2="192"/><line fill="#000000" stroke="#E6E7E8" stroke-width="3" stroke-linejoin="round" stroke-miterlimit="10" x1="192" y1="0" x2="0" y2="192"/><line fill="#000000" stroke="#E6E7E8" stroke-width="3" stroke-linejoin="round" stroke-miterlimit="10" x1="192" y1="96" x2="0" y2="96"/><line fill="#000000" stroke="#E6E7E8" stroke-width="3" stroke-linejoin="round" stroke-miterlimit="10" x1="96" y1="0" x2="96" y2="192"/><path fill="#000000" stroke="#6D6E71" stroke-width="3" stroke-linejoin="round" stroke-miterlimit="10" d="M172,159.563    c0,6.869-5.568,12.438-12.436,12.438H32.437C25.568,172,20,166.432,20,159.563V32.437C20,25.568,25.568,20,32.437,20h127.128    C166.432,20,172,25.568,172,32.437V159.563z"/><path fill="#000000" stroke="#6D6E71" stroke-width="3" stroke-linejoin="round" stroke-miterlimit="10" d="M184,149.526    c0,5.785-6.447,10.474-14.399,10.474H22.4C14.448,160,8,155.312,8,149.526V42.473C8,36.688,14.448,32,22.4,32h147.2    C177.553,32,184,36.688,184,42.473V149.526z"/><path fill="#000000" stroke="#6D6E71" stroke-width="3" stroke-linejoin="round" stroke-miterlimit="10" d="M149.526,8    C155.312,8,160,14.447,160,22.399v147.2c0,7.953-4.688,14.4-10.474,14.4H42.473C36.689,184,32,177.553,32,169.6v-147.2    C32,14.447,36.689,8,42.473,8H149.526z"/><circle fill="#000000" stroke="#6D6E71" stroke-width="3" stroke-linejoin="round" stroke-miterlimit="10" cx="96" cy="96" r="88"/></g></g><g display="none"><path display="inline" fill="none" stroke="#000000" stroke-width="6" stroke-linecap="round" stroke-linejoin="round" stroke-miterlimit="10" d="   M117.918,118.247C120.144,110.371,121,101.638,121,84c0-17.636-4.11-17.366-10.788-36.202C103.534,28.963,104.733,8,104.733,8   H87.267c0,0,1.199,20.963-5.479,39.798S71,66.364,71,84c0,17.638,0.856,26.371,3.083,34.247c2.226,7.876,2.397,24.829,2.397,32.191   c0,7.363-5.479,13.528-5.479,20.206C71,177.323,74.253,184,78.363,184s31.165,0,35.274,0S121,177.323,121,170.644   c0-6.678-5.479-12.842-5.479-20.206C115.521,143.076,115.692,126.124,117.918,118.247z"/></g><g><g><g><path d="M105.594,14H86.406c-1.657,0-3-1.343-3-3s1.343-3,3-3h19.188c1.657,0,3,1.343,3,3S107.251,14,105.594,14z"/></g><path d="M117.918,118.247C120.144,110.371,121,101.638,121,84c0-17.636-4.11-17.366-10.788-36.202    c-3.938-11.105-5.136-22.946-5.457-30.798H87.245c-0.321,7.852-1.52,19.693-5.457,30.798C75.109,66.634,71,66.364,71,84    c0,17.638,0.856,26.371,3.083,34.247c2.226,7.876,2.397,24.829,2.397,32.191c0,7.363-5.479,13.528-5.479,20.206    C71,177.323,74.253,184,78.363,184s31.165,0,35.274,0S121,177.323,121,170.644c0-6.678-5.479-12.842-5.479-20.206    C115.521,143.076,115.692,126.124,117.918,118.247z"/></g></g><text x="0" y="207" fill="#000000" font-size="5px" font-weight="bold" font-family="'Helvetica Neue', Helvetica, Arial-Unicode, Arial, Sans-serif">Created by Royyan Wijaya</text><text x="0" y="212" fill="#000000" font-size="5px" font-weight="bold" font-family="'Helvetica Neue', Helvetica, Arial-Unicode, Arial, Sans-serif">from the Noun Project</text></svg>