<svg xmlns:dc="http://purl.org/dc/elements/1.1/" xmlns:cc="http://creativecommons.org/ns#" xmlns:rdf="http://www.w3.org/1999/02/22-rdf-syntax-ns#" xmlns:svg="http://www.w3.org/2000/svg" xmlns="http://www.w3.org/2000/svg" xmlns:sodipodi="http://sodipodi.sourceforge.net/DTD/sodipodi-0.dtd" xmlns:inkscape="http://www.inkscape.org/namespaces/inkscape" viewBox="0 0 8.4666665 10.583333625" version="1.1" x="0px" y="0px"><g transform="translate(0,-288.53332)"><path style="color:#000000;font-style:normal;font-variant:normal;font-weight:normal;font-stretch:normal;font-size:medium;line-height:normal;font-family:sans-serif;font-variant-ligatures:normal;font-variant-position:normal;font-variant-caps:normal;font-variant-numeric:normal;font-variant-alternates:normal;font-feature-settings:normal;text-indent:0;text-align:start;text-decoration:none;text-decoration-line:none;text-decoration-style:solid;text-decoration-color:#000000;letter-spacing:normal;word-spacing:normal;text-transform:none;writing-mode:lr-tb;direction:ltr;text-orientation:mixed;dominant-baseline:auto;baseline-shift:baseline;text-anchor:start;white-space:normal;shape-padding:0;clip-rule:nonzero;display:inline;overflow:visible;visibility:visible;opacity:1;isolation:auto;mix-blend-mode:normal;color-interpolation:sRGB;color-interpolation-filters:linearRGB;solid-color:#000000;solid-opacity:1;vector-effect:none;fill:#000000;fill-opacity:1;fill-rule:nonzero;stroke:none;stroke-width:0.5291667;stroke-linecap:butt;stroke-linejoin:miter;stroke-miterlimit:4;stroke-dasharray:none;stroke-dashoffset:0;stroke-opacity:1;color-rendering:auto;image-rendering:auto;shape-rendering:auto;text-rendering:auto;enable-background:accumulate" d="m 3.96875,289.06249 v 0.89659 l -0.6154662,-0.56276 -0.3565673,0.39067 0.9720335,0.88884 v 1.02164 l -0.5291665,0.30541 -0.8847006,-0.51056 -0.2837036,-1.28675 -0.5167643,0.11421 0.179834,0.81442 -0.7766968,-0.44855 -0.2645833,0.45785 0.77618,0.44803 -0.7942668,0.25167 0.1596802,0.50488 1.2557373,-0.39791 0.8847005,0.51056 v 0.61185 l -0.8847005,0.51056 -1.2557373,-0.3979 -0.1596802,0.50487 0.7947835,0.25167 -0.7766967,0.44803 0.2645833,0.45786 0.7766968,-0.44804 -0.179834,0.81391 0.5167643,0.1142 0.2837036,-1.28674 0.8847006,-0.51057 0.5291665,0.30541 v 1.02165 l -0.9720335,0.88883 0.3565673,0.39067 0.6154662,-0.56275 v 0.89658 h 0.5291667 v -0.89658 l 0.6154663,0.56275 0.3565673,-0.39067 -0.9720336,-0.88883 v -1.02165 l 0.5291667,-0.30541 0.8847005,0.51057 0.2837037,1.28674 0.5167643,-0.1142 -0.1798341,-0.81442 0.7766968,0.44855 0.2645833,-0.45786 -0.77618,-0.44803 0.7942667,-0.25167 -0.15968,-0.50487 -1.2557374,0.3979 -0.8847005,-0.51056 v -0.61185 l 0.8847005,-0.51056 1.2557374,0.39791 0.15968,-0.50488 -0.7947835,-0.25167 0.7766968,-0.44803 -0.2645833,-0.45785 -0.7766968,0.44803 0.1798341,-0.8139 -0.5167643,-0.11421 -0.2837037,1.28675 -0.8847005,0.51056 -0.5291667,-0.30541 v -1.02164 l 0.9720336,-0.88884 -0.3565673,-0.39067 -0.6154663,0.56276 v -0.89659 z"/></g><text x="0" y="23.4666669" fill="#000000" font-size="5px" font-weight="bold" font-family="'Helvetica Neue', Helvetica, Arial-Unicode, Arial, Sans-serif">Created by Nawicon Studio</text><text x="0" y="28.4666669" fill="#000000" font-size="5px" font-weight="bold" font-family="'Helvetica Neue', Helvetica, Arial-Unicode, Arial, Sans-serif">from the Noun Project</text></svg>