<svg xmlns="http://www.w3.org/2000/svg" xmlns:xlink="http://www.w3.org/1999/xlink" version="1.1" x="0px" y="0px" viewBox="0 0 100 125" style="enable-background:new 0 0 100 100;" xml:space="preserve"><g><polygon points="59.9,7.2 53,14.1 62.3,23.3 7.7,78.1 17.2,87.6 71.9,32.7 81.3,42 95,28.3 73.6,7.2  "/><polygon points="13.7,42 27.5,40.6 34.2,47.3 43.7,37.8 37.3,31.4 38.5,17.2 31.6,10.3 19.8,8.8 16.3,12.3 26.3,22.3 18.7,29.9    8.7,19.9 5.1,23.5 6.8,35.1  "/><polygon points="85.1,80.9 88.7,77.3 87,65.7 80.1,58.8 66.3,60.1 57.5,51.4 48,60.9 56.5,69.3 55.3,83.6 62.2,90.5 74,92    77.5,88.4 67.5,78.4 75.1,70.9  "/></g><text x="0" y="115" fill="#000000" font-size="5px" font-weight="bold" font-family="'Helvetica Neue', Helvetica, Arial-Unicode, Arial, Sans-serif">Created by Viktor Vorobyev</text><text x="0" y="120" fill="#000000" font-size="5px" font-weight="bold" font-family="'Helvetica Neue', Helvetica, Arial-Unicode, Arial, Sans-serif">from the Noun Project</text></svg>