<svg xmlns="http://www.w3.org/2000/svg" xmlns:xlink="http://www.w3.org/1999/xlink" version="1.1" x="0px" y="0px" viewBox="0 0 64 80" enable-background="new 0 0 64 64" xml:space="preserve"><path fill-rule="evenodd" clip-rule="evenodd" d="M53.606,37.003c-0.045,0.11-0.066,0.197-0.121,0.316  c-0.771,1.669-0.7,3.509,0.023,5.053c0.006,0.015,0.015,0.029,0.019,0.042c0.034,0.07,0.06,0.143,0.096,0.21  c0.087,0.168,0.116,0.344,0.121,0.521c0.662,2.355,0.096,4.986-1.759,6.84c-2.163,2.164-5.379,2.586-7.986,1.326V55v3.001V61  c0,0.552-0.447,1.105-0.999,1.236l-2.999,0.713c-0.554,0.132-1.002-0.209-1.002-0.762v-2.188V59c0-0.552-0.447-0.999-0.999-0.999  c-0.554,0-1.001,0.447-1.001,0.999v0.999V63c0,0.553-0.447,1-0.999,1h-4.001C31.448,64,31,63.553,31,63v-3.001V59  c0-0.552-0.447-0.999-1.001-0.999C29.447,58.001,29,58.448,29,59v0.999V63c0,0.553-0.447,1-0.999,1H24c-0.554,0-1.001-0.447-1.001-1  v-3.001V59c0-0.552-0.447-0.999-0.999-0.999S21.001,58.448,21.001,59v0.999v2.188c0,0.553-0.447,0.894-1.001,0.762l-3-0.713  c-0.554-0.131-1.001-0.685-1.001-1.236v-2.999V55v-3.688c-2.606,1.26-5.82,0.836-7.984-1.328c-1.854-1.854-2.42-4.484-1.758-6.84  c0.004-0.177,0.033-0.353,0.12-0.521c0.036-0.067,0.062-0.14,0.096-0.21c0.004-0.013,0.013-0.027,0.02-0.042  c0.723-1.544,0.791-3.384,0.023-5.053c-0.06-0.13-0.083-0.226-0.132-0.347c-1.525-3.291-2.385-6.961-2.385-10.858  C3.999,11.692,15.641,0,29.999,0c14.36,0,26.002,11.692,26.002,26.114C56.001,30.021,55.14,33.707,53.606,37.003L53.606,37.003z   M28.001,34c0-3.314-2.688-6-6.001-6h-2c-4.419,0-7.999,3.581-7.999,8v2c0,3.313,2.686,6.001,5.998,6.001H20  c4.418,0,8.001-3.583,8.001-8.001V34L28.001,34z M30.01,44.005c-0.02-0.002-0.036-0.004-0.053-0.004  c-0.018,0-0.032,0.004-0.049,0.004c-0.414,0-0.834,0.07-1.239,0.226c-0.931,0.354-1.574,1.062-1.858,1.89l-1.578,3.578  c-0.693,1.574,0.128,3.39,1.833,4.054c1.019,0.396,2.117,0.284,2.986-0.197c0.866,0.463,1.931,0.575,2.917,0.201  c1.688-0.643,2.482-2.443,1.77-4.021l-1.527-3.385c-0.259-0.912-0.946-1.713-1.956-2.105C30.848,44.086,30.426,44.012,30.01,44.005  L30.01,44.005z M48,36c0-4.419-3.581-8-7.999-8H38c-3.313,0-6.001,2.686-6.001,6v2c0,4.418,3.583,8.001,8.002,8.001h2  C45.314,44.001,48,41.313,48,38V36L48,36z"/><text x="0" y="79" fill="#000000" font-size="5px" font-weight="bold" font-family="'Helvetica Neue', Helvetica, Arial-Unicode, Arial, Sans-serif">Created by Muhamad Ulum</text><text x="0" y="84" fill="#000000" font-size="5px" font-weight="bold" font-family="'Helvetica Neue', Helvetica, Arial-Unicode, Arial, Sans-serif">from the Noun Project</text></svg>