<svg xmlns="http://www.w3.org/2000/svg" xmlns:xlink="http://www.w3.org/1999/xlink" version="1.1" x="0px" y="0px" viewBox="0 0 100 125" style="enable-background:new 0 0 100 100;" xml:space="preserve"><g><path d="M85.267,4.719C85.266,2.115,83.129-0.002,80.504,0L19.438,0.035c-2.625,0.001-4.759,2.12-4.757,4.725l0.052,90.521   c0.001,2.604,2.138,4.721,4.763,4.719l61.065-0.035c2.624-0.001,4.759-2.121,4.757-4.725L85.267,4.719z M29.016,23.086   c0,0-6.187-3.642-6.188-7.584c-0.001-1.84,1.501-3.331,3.355-3.332c1.188-0.001,2.23,0.609,2.828,1.531   c0.596-0.922,1.639-1.534,2.826-1.535c1.854,0,3.358,1.49,3.359,3.329C35.198,19.438,29.016,23.086,29.016,23.086z M50.012,66.215   c0,0-16.565-9.75-16.571-20.307c-0.003-4.926,4.02-8.92,8.984-8.923c3.179-0.002,5.973,1.633,7.573,4.103   c1.596-2.471,4.389-4.109,7.567-4.111c4.966-0.003,8.992,3.988,8.995,8.912C66.566,56.445,50.012,66.215,50.012,66.215z    M73.817,87.83c-1.187,0-2.231-0.609-2.828-1.531c-0.597,0.922-1.64,1.533-2.826,1.535c-1.854,0-3.358-1.49-3.358-3.329   c-0.003-3.942,6.179-7.591,6.179-7.591s6.187,3.642,6.188,7.584C77.174,86.338,75.671,87.829,73.817,87.83z"/></g><text x="0" y="115" fill="#000000" font-size="5px" font-weight="bold" font-family="'Helvetica Neue', Helvetica, Arial-Unicode, Arial, Sans-serif">Created by b farias</text><text x="0" y="120" fill="#000000" font-size="5px" font-weight="bold" font-family="'Helvetica Neue', Helvetica, Arial-Unicode, Arial, Sans-serif">from the Noun Project</text></svg>