<svg xmlns="http://www.w3.org/2000/svg" xmlns:xlink="http://www.w3.org/1999/xlink" version="1.1" x="0px" y="0px" viewBox="0 0 32 40" enable-background="new 0 0 32 32" xml:space="preserve"><path d="M6,15C6,8.935,10.935,4,17,4c2.939,0,5.702,1.145,7.78,3.223c0.391,0.391,1.023,0.391,1.414,0  c0.391-0.39,0.391-1.023,0-1.414C23.738,3.353,20.474,2,17,2C9.832,2,4,7.832,4,15c0,6.83,5.299,12.435,12,12.949V30h-3  c-0.552,0-1,0.447-1,1s0.448,1,1,1h8c0.553,0,1-0.447,1-1s-0.447-1-1-1h-3v-2h5c0.553,0,1-0.447,1-1s-0.447-1-1-1h-5v-2.059  c4.493-0.499,8-4.316,8-8.941c0-4.962-4.037-9-9-9c-4.962,0-9,4.038-9,9c0,4.625,3.507,8.442,8,8.941v2.008  C10.402,25.442,6,20.728,6,15z M24,15c0,0.34-0.033,0.672-0.08,1H23c-0.806,0-0.988-0.55-1-1v-2c0-0.552-0.447-1-1-1h-2  c-0.806,0-0.988-0.55-1-1V8.08C21.386,8.568,24,11.481,24,15z M16,8.08V11c0,1.206,0.799,3,3,3h1v1c0,1.206,0.799,3,3,3h0.315  c-1.126,2.361-3.53,4-6.315,4c-0.34,0-0.672-0.033-1-0.08V17c0-2.201-1.794-3-3-3h-2.92C10.52,10.941,12.941,8.52,16,8.08z   M10.08,16h2.908C13.45,16.012,14,16.195,14,17v4.315C11.928,20.326,10.419,18.352,10.08,16z"/><text x="0" y="47" fill="#000000" font-size="5px" font-weight="bold" font-family="'Helvetica Neue', Helvetica, Arial-Unicode, Arial, Sans-serif">Created by Sebastian Belalcazar Lareo</text><text x="0" y="52" fill="#000000" font-size="5px" font-weight="bold" font-family="'Helvetica Neue', Helvetica, Arial-Unicode, Arial, Sans-serif">from the Noun Project</text></svg>