<svg xmlns="http://www.w3.org/2000/svg" xmlns:xlink="http://www.w3.org/1999/xlink" version="1.1" x="0px" y="0px" viewBox="0 0 32 40" enable-background="new 0 0 32 32" xml:space="preserve"><g><g><path d="M4,11V6c0-1.105,0.894-2,2-2h4V0H6C2.691,0,0,2.692,0,6v5H4z"/><path d="M22,4h4c1.105,0,2,0.895,2,2v5h4V6c0-3.309-2.691-6-6-6h-4V4z"/><path d="M10,28.001H6c-1.106,0-2-0.896-2-2v-3H0v3C0,29.308,2.691,32,6,32h4V28.001z"/><path d="M28,23.001v3c0,1.104-0.895,2-2,2h-4V32h4c3.309,0,6-2.691,6-5.999v-3H28z"/></g></g><text x="0" y="47" fill="#000000" font-size="5px" font-weight="bold" font-family="'Helvetica Neue', Helvetica, Arial-Unicode, Arial, Sans-serif">Created by Noe Araujo</text><text x="0" y="52" fill="#000000" font-size="5px" font-weight="bold" font-family="'Helvetica Neue', Helvetica, Arial-Unicode, Arial, Sans-serif">from the Noun Project</text></svg>