<svg xmlns="http://www.w3.org/2000/svg" data-name="Layer 1" viewBox="0 0 100 125" x="0px" y="0px"><title>06</title><path d="M88.63,42.83a3,3,0,0,0,.26-.34l.09-.12a3,3,0,0,0,.25-.5c0-.05,0-.1,0-.15a3,3,0,0,0,.1-.39c0-.08,0-.16,0-.23s0-.19,0-.29,0,0,0-.07v0a39.42,39.42,0,0,0-78.84,0v0s0,0,0,.07,0,.19,0,.29,0,.16,0,.23a3,3,0,0,0,.1.39c0,.05,0,.11,0,.16a3,3,0,0,0,.25.5l.09.12a3,3,0,0,0,.26.33l0,0L37.67,70.6v5.8h-.31a3,3,0,0,0-3,3V95.6a3,3,0,0,0,3,3H62.64a3,3,0,0,0,3-3V79.4a3,3,0,0,0-3-3h-.31V70.6L88.6,42.88ZM53,41.72a6.11,6.11,0,0,1,12.18-.63L53,65.74ZM47,65.49,34.82,41.08A6.11,6.11,0,0,1,47,41.72ZM28.83,42.13c0,.09,0,.19,0,.28s.05.18.08.26a3,3,0,0,0,.12.31l0,.08,10.3,20.65L17,40a8.76,8.76,0,0,1,1.39-2.63,6.11,6.11,0,0,1,10.42,4.31s0,.06,0,.09A3,3,0,0,0,28.83,42.13Zm32,21.36L70.9,43l0-.07a3,3,0,0,0,.12-.32c0-.09.06-.17.08-.26s0-.18,0-.28a3,3,0,0,0,0-.33s0-.05,0-.08a6.1,6.1,0,0,1,10.43-4.3A8.66,8.66,0,0,1,83,40ZM50,7.4A33.48,33.48,0,0,1,81.78,30.47a12.11,12.11,0,0,0-13,2.69q-.29.29-.56.59-.26-.3-.55-.58a12.09,12.09,0,0,0-17.1,0q-.29.29-.56.59-.26-.3-.55-.58a12.09,12.09,0,0,0-17.1,0q-.29.29-.56.59-.26-.3-.55-.58a12.11,12.11,0,0,0-13-2.7A33.48,33.48,0,0,1,50,7.4Zm9.64,85.2H40.36V82.4H59.64Zm-16-16.2v-4H56.33v4Z"/><text x="0" y="115" fill="#000000" font-size="5px" font-weight="bold" font-family="'Helvetica Neue', Helvetica, Arial-Unicode, Arial, Sans-serif">Created by Popular</text><text x="0" y="120" fill="#000000" font-size="5px" font-weight="bold" font-family="'Helvetica Neue', Helvetica, Arial-Unicode, Arial, Sans-serif">from the Noun Project</text></svg>