<svg xmlns="http://www.w3.org/2000/svg" xmlns:xlink="http://www.w3.org/1999/xlink" version="1.1" x="0px" y="0px" viewBox="0 0 100 125" style="enable-background:new 0 0 100 100;" xml:space="preserve"><path d="M49.3,91.5c0.2,0.1,0.5,0.2,0.7,0.2c0.2,0,0.5-0.1,0.7-0.2l9.8-5.1c14.3-7.5,23.2-22.1,23.2-38.3V21.6c0-0.6-0.4-1.2-1-1.4  L50.5,8.5c-0.3-0.1-0.7-0.1-1,0L17.2,20.2c-0.6,0.2-1,0.8-1,1.4v26.4c0,16.1,8.9,30.8,23.2,38.3L49.3,91.5z"/><text x="0" y="115" fill="#000000" font-size="5px" font-weight="bold" font-family="'Helvetica Neue', Helvetica, Arial-Unicode, Arial, Sans-serif">Created by Mohamad Arif Prasetyo</text><text x="0" y="120" fill="#000000" font-size="5px" font-weight="bold" font-family="'Helvetica Neue', Helvetica, Arial-Unicode, Arial, Sans-serif">from the Noun Project</text></svg>