<svg xmlns:dc="http://purl.org/dc/elements/1.1/" xmlns:cc="http://creativecommons.org/ns#" xmlns:rdf="http://www.w3.org/1999/02/22-rdf-syntax-ns#" xmlns:svg="http://www.w3.org/2000/svg" xmlns="http://www.w3.org/2000/svg" xmlns:sodipodi="http://sodipodi.sourceforge.net/DTD/sodipodi-0.dtd" xmlns:inkscape="http://www.inkscape.org/namespaces/inkscape" version="1.1" x="0px" y="0px" viewBox="0 0 100 125"><g transform="translate(0,-952.36218)"><path style="opacity:1;color:#000000;fill:#000000;stroke:none;stroke-width:4.00000047999999970;marker:none;visibility:visible;display:inline;overflow:visible;enable-background:accumulate" d="M 35 19 C 30.66767 19 27 22 25 26 C 24.9987 26.0027 24.699205 26.57098 24.6875 26.59375 C 27.049718 25.577227 29.598182 25 32 25 C 35.669757 25 39.410001 26.33398 42.40625 28.5625 C 42.965122 28.978172 43.49703 29.455678 44 29.9375 L 44 29 C 44 23.47715 40.522846 19 35 19 z M 65 19 C 59.47715 19 56 23.47715 56 29 L 56 29.9375 C 56.50297 29.45568 57.03488 28.97817 57.59375 28.5625 C 60.59 26.33398 64.33024 25 68 25 C 70.40182 25 72.95028 25.57723 75.3125 26.59375 C 75.30079 26.57098 75.001 26.003 75 26 C 73 22 69.33233 19 65 19 z M 32 29 C 26.928709 29 22.215236 31.589263 19.90625 35.90625 C 19.90355 35.91145 19.87768 35.90105 19.875 35.90625 C 18.293457 38.970769 17.904752 39.750643 16 43.4375 C 19.004541 41.89216 22.404434 41 26 41 C 33.243974 41 39.673716 44.558031 43.6875 50 L 56.3125 50 C 60.326288 44.558061 66.756029 41 74 41 C 77.59557 41 80.99546 41.89216 84 43.4375 C 82.09525 39.75064 81.70654 38.97077 80.125 35.90625 C 80.1224 35.90125 80.09675 35.91125 80.09375 35.90625 C 77.78476 31.58926 73.07129 29 68 29 C 65.337 29 62.30838 30.0331 60 31.75 C 57.733459 33.435781 56.247553 35.668736 56.03125 38 L 43.96875 38 C 43.752448 35.668736 42.266541 33.435781 40 31.75 C 37.69162 30.0331 34.663003 29 32 29 z M 26 45 C 16.058875 45 8 53.058875 8 63 C 8 72.941125 16.058875 81 26 81 C 35.941125 81 44 72.941125 44 63 C 44 53.058875 35.941125 45 26 45 z M 74 45 C 64.05887 45 56 53.0589 56 63 C 56 72.9411 64.05887 81 74 81 C 83.94113 81 92 72.9411 92 63 C 92 53.0589 83.94113 45 74 45 z M 26 53 C 31.522848 53 36 57.477152 36 63 C 36 68.522848 31.522848 73 26 73 C 20.477152 73 16 68.522848 16 63 C 16 57.477152 20.477152 53 26 53 z M 74 53 C 79.52285 53 84 57.4771 84 63 C 84 68.5228 79.52285 73 74 73 C 68.47715 73 64 68.5228 64 63 C 64 57.4771 68.47715 53 74 53 z " transform="translate(0,952.36218)"/></g><text x="0" y="115" fill="#000000" font-size="5px" font-weight="bold" font-family="'Helvetica Neue', Helvetica, Arial-Unicode, Arial, Sans-serif">Created by joe pictos</text><text x="0" y="120" fill="#000000" font-size="5px" font-weight="bold" font-family="'Helvetica Neue', Helvetica, Arial-Unicode, Arial, Sans-serif">from the Noun Project</text></svg>