<svg xmlns="http://www.w3.org/2000/svg" xmlns:xlink="http://www.w3.org/1999/xlink" version="1.1" x="0px" y="0px" viewBox="0 0 48 60" style="enable-background:new 0 0 48 48;" xml:space="preserve"><style type="text/css">
	.st0{fill:#FFFFFF;}
	.st1{fill:none;stroke:#000000;stroke-width:3;stroke-linecap:round;stroke-miterlimit:10;}
</style><path d="M33,42.5H14.9c-0.5,0-1-0.3-1.3-0.7c-0.3-0.5-0.3-1,0-1.5l9.1-16.7c0.3-0.5,0.8-0.8,1.3-0.8c0,0,0,0,0,0  c0.6,0,1.1,0.3,1.3,0.8l9,16.7c0.3,0.5,0.2,1,0,1.5C34,42.2,33.5,42.5,33,42.5z M17.5,39.5h13l-6.5-12L17.5,39.5z M14.8,33.2  l1.5-2.8c-1.5-1.7-2.4-4-2.4-6.4c0-5.5,4.5-10,10-10s10,4.5,10,10c0,2.5-0.9,4.7-2.4,6.4l1.5,2.8c2.4-2.4,3.8-5.6,3.8-9.2  c0-7.2-5.8-13-13-13s-13,5.8-13,13C11,27.6,12.5,30.9,14.8,33.2z M20,23.8c0.1-2.1,1.8-3.8,4-3.8s3.9,1.7,4,3.8l2.1,3.7  c0.6-1,1-2.2,1-3.5c0-3.9-3.1-7-7-7s-7,3.1-7,7c0,1.3,0.4,2.5,1,3.5L20,23.8z M11.9,38.6l1.5-2.7C10.1,33,8,28.7,8,24  c0-8.8,7.2-16,16-16s16,7.2,16,16c0,4.7-2.1,9-5.4,11.9l1.5,2.7C40.3,35.1,43,29.9,43,24c0-10.5-8.5-19-19-19S5,13.5,5,24  C5,29.9,7.7,35.1,11.9,38.6z"/><text x="0" y="63" fill="#000000" font-size="5px" font-weight="bold" font-family="'Helvetica Neue', Helvetica, Arial-Unicode, Arial, Sans-serif">Created by Kenneth Chua</text><text x="0" y="68" fill="#000000" font-size="5px" font-weight="bold" font-family="'Helvetica Neue', Helvetica, Arial-Unicode, Arial, Sans-serif">from the Noun Project</text></svg>