<svg xmlns="http://www.w3.org/2000/svg" xmlns:xlink="http://www.w3.org/1999/xlink" version="1.1" x="0px" y="0px" viewBox="0 0 50 62.5" enable-background="new 0 0 50 50" xml:space="preserve"><path d="M20.404,12.903c-1.326,1.171-2.707,2.485-4.037,3.804H7.424C4.98,16.707,3,18.688,3,21.13v7.741  c0,2.443,1.98,4.424,4.424,4.424h8.945c1.33,1.316,2.709,2.631,4.035,3.803c5.482,4.839,9.137,7.258,9.137,3.225  c0-4.031,0-15.322,0-15.322s0-11.291,0-15.322C29.541,5.645,25.887,8.064,20.404,12.903z"/><path d="M34.402,16.424c-0.646,0.648-0.646,1.698,0,2.346c1.668,1.666,2.584,3.879,2.584,6.23s-0.916,4.564-2.584,6.231  c-0.646,0.647-0.646,1.698,0,2.346c0.324,0.323,0.748,0.485,1.174,0.485c0.424,0,0.848-0.162,1.172-0.485  c2.293-2.292,3.555-5.339,3.555-8.577s-1.262-6.283-3.555-8.576C36.1,15.776,35.051,15.776,34.402,16.424z"/><path d="M43.443,16.424c-0.646-0.647-1.697-0.647-2.344,0c-0.648,0.648-0.648,1.698,0,2.346c1.664,1.666,2.582,3.879,2.582,6.23  s-0.918,4.564-2.582,6.231c-0.648,0.647-0.648,1.698,0,2.346c0.322,0.323,0.748,0.485,1.172,0.485s0.85-0.162,1.172-0.485  C45.738,31.285,47,28.238,47,25S45.738,18.717,43.443,16.424z"/><text x="0" y="65" fill="#000000" font-size="5px" font-weight="bold" font-family="'Helvetica Neue', Helvetica, Arial-Unicode, Arial, Sans-serif">Created by Bieutuong Chin</text><text x="0" y="70" fill="#000000" font-size="5px" font-weight="bold" font-family="'Helvetica Neue', Helvetica, Arial-Unicode, Arial, Sans-serif">from the Noun Project</text></svg>