<svg xmlns="http://www.w3.org/2000/svg" xmlns:xlink="http://www.w3.org/1999/xlink" version="1.1" x="0px" y="0px" viewBox="0 0 100 125" enable-background="new 0 0 100 100" xml:space="preserve"><path d="M82.982,13.14L72.552,36.434c0,0-4.943,9.535-8.948,11.498c-4.27,2.094-11.255,0.075-15.8,1.553  c-2.774,0.902-4.126,5.248-4.126,5.248l11.205,5.268c0,0,2.068,1.175,4.711,1.726c2.934,0.616,10.088-1.975,10.088-1.975  l-2.913,5.844l9.869,4.643l22.71-49.395L82.982,13.14z"/><path d="M76.382,79.599l-6.607-8.351l-6.75,8.504l-6.975-8.839l-6.734,8.454l-6.258-7.966l-6.68,8.429l-6.749-8.506l-6.75,8.506  l-6.327-8.04v-0.026h-4.217l-0.57-4.427l10.644,1.194L21.07,57.759l11.269,1.237l-1.327-10.688l10.116,1.164L39.8,38.801l10.849,1.2  L49.315,29.22l10.22,1.173l-12.159-12.12L0.79,65.157l6.628,6.606h-4.22v17.037h79.443V71.636L76.382,79.599z M11.169,82.632  c-1.532,0-2.775-1.241-2.775-2.776s1.243-2.776,2.775-2.776c1.532,0,2.776,1.241,2.776,2.776S12.701,82.632,11.169,82.632z"/><polygon points="9.883,46.431 7.885,44.899 30.829,14.926 32.827,16.455 9.883,46.431 "/><polygon points="8.067,35.332 5.847,34.152 14.805,17.32 17.025,18.502 8.067,35.332 "/><text x="0" y="115" fill="#000000" font-size="5px" font-weight="bold" font-family="'Helvetica Neue', Helvetica, Arial-Unicode, Arial, Sans-serif">Created by Luis Prado</text><text x="0" y="120" fill="#000000" font-size="5px" font-weight="bold" font-family="'Helvetica Neue', Helvetica, Arial-Unicode, Arial, Sans-serif">from the Noun Project</text></svg>