<svg xmlns="http://www.w3.org/2000/svg" data-name="Layer 1" viewBox="0 0 100 125" x="0px" y="0px"><title>Artboard 42</title><path d="M68.12,25.32V23.91a4.5,4.5,0,0,0-4.5-4.5H61.25l5.63-5.63a1.5,1.5,0,0,0-2.12-2.12L57,19.41H43a4.5,4.5,0,0,0-4.5,4.5v1.41a4.5,4.5,0,0,0-3.78,4.43V77a4.5,4.5,0,0,0,3.78,4.43v1.41a4.5,4.5,0,0,0,4.5,4.5H63.62a4.5,4.5,0,0,0,4.5-4.5V81.43A4.5,4.5,0,0,0,71.9,77V29.75A4.5,4.5,0,0,0,68.12,25.32ZM41.48,23.91a1.5,1.5,0,0,1,1.5-1.5H63.62a1.5,1.5,0,0,1,1.5,1.5v1.34H41.48ZM65.12,82.83a1.5,1.5,0,0,1-1.5,1.5H43a1.5,1.5,0,0,1-1.5-1.5V81.5H65.12ZM68.9,77a1.5,1.5,0,0,1-1.5,1.5H39.2A1.5,1.5,0,0,1,37.7,77V68.42a26,26,0,0,0,3,.17c5.4,0,13.82-1.69,17.25-11.45a11.31,11.31,0,0,1,10.94-7.7Zm0-30.57a14.41,14.41,0,0,0-13.77,9.72c-3.64,10.34-13.94,9.78-17.42,9.27V52a15.75,15.75,0,0,0,3.36.35c3.3,0,7.87-.95,13.1-4.66,7.18-5.09,12.7-4.26,14.73-3.67Zm0-5.46c-3.06-.66-9.11-.91-16.46,4.31-7.18,5.09-12.69,4.26-14.73,3.67V29.75a1.5,1.5,0,0,1,1.5-1.5H67.4a1.5,1.5,0,0,1,1.5,1.5Z"/><text x="0" y="115" fill="#000000" font-size="5px" font-weight="bold" font-family="'Helvetica Neue', Helvetica, Arial-Unicode, Arial, Sans-serif">Created by Bernar  Novalyi</text><text x="0" y="120" fill="#000000" font-size="5px" font-weight="bold" font-family="'Helvetica Neue', Helvetica, Arial-Unicode, Arial, Sans-serif">from the Noun Project</text></svg>