<svg xmlns="http://www.w3.org/2000/svg" viewBox="0 0 60 75" x="0px" y="0px"><title>- Harry Potter - Solid - 33-Invisibility Cloak</title><g data-name="Layer 1"><path d="M30,7c-1.42676,0-2.38525,2.002-2.38525,3.87109C27.61475,11.60547,27.78662,14,30,14a2.02537,2.02537,0,0,0,1.76611-.85254,3.94152,3.94152,0,0,0,.61914-2.27637C32.38525,9.002,31.42676,7,30,7Z"/><path d="M30,23.19238c-2.45752,2.0321-5.46118,10.84845-6.56494,24.60236a14.68273,14.68273,0,0,1,5.93408-.79669L30,47l.605-.001a14.65111,14.65111,0,0,1,5.96027.799C35.46167,34.04224,32.45776,25.22467,30,23.19238Z"/><path d="M48.49561,50.416c-1.354-4.75977-2.33545-9.16406-3.20166-13.0498C42.52979,24.96289,40.895,19,34,19a.99988.99988,0,0,1-.6001-1.7998,8.07559,8.07559,0,0,0,2.97705-9.415C35.27734,4.4873,32.53613,2,30,2s-5.27734,2.4873-6.377,5.78516a8.07559,8.07559,0,0,0,2.97705,9.415A.99988.99988,0,0,1,26,19c-6.895,0-8.52979,5.96289-11.29395,18.36621-.86621,3.88574-1.84766,8.29-3.20166,13.0498a3.00171,3.00171,0,0,0,.7085,2.91992,18.55908,18.55908,0,0,0,7.52559,4.26216,1.00041,1.00041,0,0,0,1.28111-.94831c.29614-17.86683,3.9378-33.24617,8.53314-35.54432a1.0011,1.0011,0,0,1,.89453,0c4.59535,2.29815,8.237,17.67749,8.53314,35.54432a1.00041,1.00041,0,0,0,1.28111.94831,18.55482,18.55482,0,0,0,7.5251-4.26216A3.00076,3.00076,0,0,0,48.49561,50.416ZM30,16c-2.623,0-4.38525-2.06152-4.38525-5.12891C25.61475,7.98535,27.25488,5,30,5s4.38525,2.98535,4.38525,5.87109C34.38525,13.93848,32.623,16,30,16Z"/></g><text x="0" y="75" fill="#000000" font-size="5px" font-weight="bold" font-family="'Helvetica Neue', Helvetica, Arial-Unicode, Arial, Sans-serif">Created by Locad</text><text x="0" y="80" fill="#000000" font-size="5px" font-weight="bold" font-family="'Helvetica Neue', Helvetica, Arial-Unicode, Arial, Sans-serif">from the Noun Project</text></svg>