<svg xmlns="http://www.w3.org/2000/svg" xmlns:xlink="http://www.w3.org/1999/xlink" version="1.2" baseProfile="tiny" x="0px" y="0px" viewBox="0 0 100 125" xml:space="preserve"><path d="M55,7.5c-10.436,0-19.12,7.568-20.898,17.5H22.703l-5-15H5v7.5h7.297l17.909,53.728C27.107,72.928,25,76.222,25,80  c0,5.514,4.486,10,10,10s10-4.486,10-10c0-0.865-0.122-1.699-0.329-2.5h23.158C67.622,78.301,67.5,79.135,67.5,80  c0,5.514,4.486,10,10,10s10-4.486,10-10s-4.486-10-10-10H37.703l-2.5-7.5h47.5l12.5-37.5H75.898C74.12,15.068,65.436,7.5,55,7.5z   M77.5,75c2.757,0,5,2.243,5,5s-2.243,5-5,5s-5-2.243-5-5S74.743,75,77.5,75z M55,12.5c8.96,0,16.25,7.29,16.25,16.25  S63.96,45,55,45s-16.25-7.29-16.25-16.25S46.04,12.5,55,12.5z M40,80c0,2.757-2.243,5-5,5s-5-2.243-5-5s2.243-5,5-5S40,77.243,40,80  z M77.297,55H32.703l-7.5-22.5h8.899C35.88,42.432,44.564,50,55,50s19.12-7.568,20.898-17.5h8.899L77.297,55z"/><polygon points="67.804,25 62.5,19.697 52.5,29.697 47.5,24.697 42.196,30 52.5,40.303 "/><text x="0" y="115" fill="#000000" font-size="5px" font-weight="bold" font-family="'Helvetica Neue', Helvetica, Arial-Unicode, Arial, Sans-serif">Created by Arthur Shlain</text><text x="0" y="120" fill="#000000" font-size="5px" font-weight="bold" font-family="'Helvetica Neue', Helvetica, Arial-Unicode, Arial, Sans-serif">from the Noun Project</text></svg>