<svg xmlns="http://www.w3.org/2000/svg" xmlns:xlink="http://www.w3.org/1999/xlink" version="1.0" x="0px" y="0px" viewBox="0 0 100 125" enable-background="new 0 0 100 100" xml:space="preserve"><g><path fill="#000000" d="M25.78,37.89c0,1.332-1.09,2.422-2.422,2.422h-4.844c-1.332,0-2.422-1.09-2.422-2.422v-4.844   c0-1.332,1.09-2.422,2.422-2.422h4.844c1.332,0,2.422,1.09,2.422,2.422V37.89z"/><path fill="#000000" d="M25.78,52.422c0,1.332-1.09,2.422-2.422,2.422h-4.844c-1.332,0-2.422-1.09-2.422-2.422v-4.844   c0-1.332,1.09-2.422,2.422-2.422h4.844c1.332,0,2.422,1.09,2.422,2.422V52.422z"/><path fill="#000000" d="M28.202,66.954c0,1.331-1.09,2.422-2.422,2.422h-7.266c-1.332,0-2.422-1.091-2.422-2.422V62.11   c0-1.332,1.09-2.423,2.422-2.423h7.266c1.332,0,2.422,1.091,2.422,2.423V66.954z"/><path fill="#000000" d="M40.312,37.89c0,1.332-1.09,2.422-2.422,2.422h-4.844c-1.332,0-2.422-1.09-2.422-2.422v-4.844   c0-1.332,1.09-2.422,2.422-2.422h4.844c1.332,0,2.422,1.09,2.422,2.422V37.89z"/><path fill="#000000" d="M40.312,52.422c0,1.332-1.09,2.422-2.422,2.422h-4.844c-1.332,0-2.422-1.09-2.422-2.422v-4.844   c0-1.332,1.09-2.422,2.422-2.422h4.844c1.332,0,2.422,1.09,2.422,2.422V52.422z"/><path fill="#000000" d="M66.954,66.954c0,1.331-1.091,2.422-2.422,2.422H35.468c-1.332,0-2.422-1.091-2.422-2.422V62.11   c0-1.332,1.09-2.423,2.422-2.423h29.064c1.331,0,2.422,1.091,2.422,2.423V66.954z"/><path fill="#000000" d="M54.844,37.89c0,1.332-1.09,2.422-2.422,2.422h-4.844c-1.332,0-2.422-1.09-2.422-2.422v-4.844   c0-1.332,1.09-2.422,2.422-2.422h4.844c1.332,0,2.422,1.09,2.422,2.422V37.89z"/><path fill="#000000" d="M54.844,52.422c0,1.332-1.09,2.422-2.422,2.422h-4.844c-1.332,0-2.422-1.09-2.422-2.422v-4.844   c0-1.332,1.09-2.422,2.422-2.422h4.844c1.332,0,2.422,1.09,2.422,2.422V52.422z"/><path fill="#000000" d="M69.376,37.89c0,1.332-1.091,2.422-2.422,2.422H62.11c-1.332,0-2.423-1.09-2.423-2.422v-4.844   c0-1.332,1.091-2.422,2.423-2.422h4.844c1.331,0,2.422,1.09,2.422,2.422V37.89z"/><path fill="#000000" d="M69.376,52.422c0,1.332-1.091,2.422-2.422,2.422H62.11c-1.332,0-2.423-1.09-2.423-2.422v-4.844   c0-1.332,1.091-2.422,2.423-2.422h4.844c1.331,0,2.422,1.09,2.422,2.422V52.422z"/><path fill="#000000" d="M83.908,37.89c0,1.332-1.091,2.422-2.422,2.422h-4.845c-1.331,0-2.422-1.09-2.422-2.422v-4.844   c0-1.332,1.091-2.422,2.422-2.422h4.845c1.331,0,2.422,1.09,2.422,2.422V37.89z"/><path fill="#000000" d="M83.908,52.422c0,1.332-1.091,2.422-2.422,2.422h-4.845c-1.331,0-2.422-1.09-2.422-2.422v-4.844   c0-1.332,1.091-2.422,2.422-2.422h4.845c1.331,0,2.422,1.09,2.422,2.422V52.422z"/><path fill="#000000" d="M83.908,66.954c0,1.331-1.091,2.422-2.422,2.422H74.22c-1.331,0-2.422-1.091-2.422-2.422V62.11   c0-1.332,1.091-2.423,2.422-2.423h7.267c1.331,0,2.422,1.091,2.422,2.423V66.954z"/></g><text x="0" y="115" fill="#000000" font-size="5px" font-weight="bold" font-family="'Helvetica Neue', Helvetica, Arial-Unicode, Arial, Sans-serif">Created by Jonathan D'Mello</text><text x="0" y="120" fill="#000000" font-size="5px" font-weight="bold" font-family="'Helvetica Neue', Helvetica, Arial-Unicode, Arial, Sans-serif">from the Noun Project</text></svg>