<svg xmlns="http://www.w3.org/2000/svg" xmlns:xlink="http://www.w3.org/1999/xlink" version="1.1" x="0px" y="0px" viewBox="0 0 50 62.5" style="enable-background:new 0 0 50 50;" xml:space="preserve"><path d="M25,8.2C15.8,8.2,8.2,15.8,8.2,25S15.8,41.8,25,41.8S41.8,34.2,41.8,25S34.2,8.2,25,8.2z M37.5,17.1h-3.7  c-0.7-2.3-1.7-4.2-3-5.7C33.5,12.6,35.8,14.6,37.5,17.1z M32.9,25c0,2.1-0.3,4.1-0.7,5.9H17.8c-0.4-1.8-0.7-3.8-0.7-5.9  c0-2.1,0.3-4.1,0.7-5.9h14.3C32.6,20.9,32.9,22.9,32.9,25z M25,39.7c-2.7,0-5.1-2.7-6.6-6.7h13.1C30.1,36.9,27.7,39.7,25,39.7z   M18.4,17.1c1.4-4,3.9-6.7,6.6-6.7s5.1,2.7,6.6,6.7H18.4z M19.3,11.4c-1.2,1.5-2.3,3.4-3,5.7h-3.7C14.2,14.6,16.5,12.6,19.3,11.4z   M11.5,19.1h4.3c-0.4,1.8-0.6,3.8-0.6,5.9c0,2.1,0.2,4.1,0.6,5.9h-4.3c-0.8-1.8-1.2-3.8-1.2-5.9C10.2,22.9,10.7,20.9,11.5,19.1z   M12.5,32.9h3.7c0.7,2.3,1.7,4.2,3,5.7C16.5,37.4,14.2,35.4,12.5,32.9z M30.7,38.6c1.2-1.5,2.3-3.4,3-5.7h3.7  C35.8,35.4,33.5,37.4,30.7,38.6z M38.5,30.9h-4.3c0.4-1.8,0.6-3.8,0.6-5.9c0-2.1-0.2-4.1-0.6-5.9h4.3c0.8,1.8,1.2,3.8,1.2,5.9  C39.8,27.1,39.3,29.1,38.5,30.9z M25,6.8c1.7,0,3-1.4,3-3c0-1.7-1.4-3-3-3s-3,1.4-3,3C22,5.5,23.3,6.8,25,6.8z M25,2.8  c0.6,0,1,0.5,1,1s-0.5,1-1,1s-1-0.5-1-1S24.4,2.8,25,2.8z M25,43.2c-1.7,0-3,1.4-3,3c0,1.7,1.4,3,3,3s3-1.4,3-3  C28,44.5,26.7,43.2,25,43.2z M25,47.2c-0.6,0-1-0.5-1-1s0.5-1,1-1s1,0.5,1,1S25.6,47.2,25,47.2z M46.2,22c-1.7,0-3,1.4-3,3  s1.4,3,3,3c1.7,0,3-1.4,3-3S47.9,22,46.2,22z M46.2,26c-0.6,0-1-0.5-1-1s0.5-1,1-1s1,0.5,1,1S46.8,26,46.2,26z M6.8,25  c0-1.7-1.4-3-3-3c-1.7,0-3,1.4-3,3s1.4,3,3,3C5.5,28,6.8,26.7,6.8,25z M2.8,25c0-0.6,0.5-1,1-1s1,0.5,1,1s-0.5,1-1,1  S2.8,25.6,2.8,25z M30.6,4.4c0.2-0.5,0.7-0.8,1.3-0.6c6.7,2.2,12.1,7.5,14.2,14.3c0.2,0.5-0.1,1.1-0.6,1.3c-0.1,0-0.2,0-0.3,0  c-0.4,0-0.8-0.3-1-0.7c-2-6.1-6.8-11-13-13C30.7,5.5,30.5,5,30.6,4.4z M3.7,18.1C5.9,11.3,11.3,6,18,3.8c0.5-0.2,1.1,0.1,1.3,0.6  c0.2,0.5-0.1,1.1-0.6,1.3c-6.2,2-11,6.9-13,13c-0.1,0.4-0.5,0.7-1,0.7c-0.1,0-0.2,0-0.3,0C3.8,19.2,3.5,18.6,3.7,18.1z M19.3,45.6  c-0.1,0.4-0.5,0.7-1,0.7c-0.1,0-0.2,0-0.3,0C11.3,44.1,5.9,38.7,3.7,32c-0.2-0.5,0.1-1.1,0.6-1.3c0.5-0.2,1.1,0.1,1.3,0.6  c2,6.2,6.9,11,13,13C19.2,44.5,19.4,45.1,19.3,45.6z M46.1,32c-2.2,6.7-7.5,12.1-14.2,14.3c-0.1,0-0.2,0-0.3,0c-0.4,0-0.8-0.3-1-0.7  c-0.2-0.5,0.1-1.1,0.6-1.3c6.1-2,11-6.9,13-13c0.2-0.5,0.7-0.8,1.3-0.6C46,30.9,46.3,31.4,46.1,32z"/><text x="0" y="65" fill="#000000" font-size="5px" font-weight="bold" font-family="'Helvetica Neue', Helvetica, Arial-Unicode, Arial, Sans-serif">Created by ATOM</text><text x="0" y="70" fill="#000000" font-size="5px" font-weight="bold" font-family="'Helvetica Neue', Helvetica, Arial-Unicode, Arial, Sans-serif">from the Noun Project</text></svg>