<svg xmlns="http://www.w3.org/2000/svg" xmlns:xlink="http://www.w3.org/1999/xlink" version="1.1" x="0px" y="0px" viewBox="0 0 99.797 125" enable-background="new 0 0 99.797 100" xml:space="preserve"><g><path d="M48.371,47.098v10.438l18.585,5.601l0.764-14.766c9.929-1.018,9.929-24.949,9.929-24.949l7.638-10.693V6.522   c0-1.666-1.289-3.048-2.951-3.165l-0.936-0.066c-1.835-0.128-3.394,1.326-3.394,3.165v3.726l-6.161,7.892l-3.615-1.528V3.172   C68.229,1.42,66.809,0,65.057,0c-1.658,0-3.036,1.276-3.163,2.929l-1.048,13.619L56.9,17.312l-1.146-4.837l-0.916-8.973   c-0.191-1.872-1.961-3.168-3.803-2.784l-0.139,0.029c-1.471,0.306-2.525,1.603-2.525,3.106v7.604l2.546,19.858l-3.819,0.764   l-1.273-6.365c0.255-6.11-7.892-6.365-7.892-6.365l1.782,16.039L48.371,47.098z M60.544,40.168c0.279-0.445,0.513-0.923,0.69-1.443   c0.319-1.042,0.537-2.251,0.479-3.571c-0.001-1.323-0.188-2.73-0.382-4.203c-0.102-0.736-0.189-1.498-0.254-2.283   c-0.019-0.394-0.03-0.799,0.009-1.214c0.045-0.395,0.172-0.894,0.523-1.101c-0.157,0.365,0.009,0.691,0.153,1.005   c0.146,0.316,0.334,0.625,0.534,0.934l1.187,1.904c0.786,1.309,1.484,2.731,1.982,4.319c0.449,1.584,0.732,3.379,0.435,5.229   c-0.147,0.921-0.412,1.84-0.783,2.72c-0.311,0.891-1.001,1.724-2.73,1.35c-0.638-0.138-1.147-0.548-1.432-1.082L60.832,42.5   C60.031,40.979,60.194,40.6,60.544,40.168z"/><path d="M97.76,95.927H82.537l-6.275-4.328l-1.993-4.652h-6.056l-3.632,3.079l-3.805-5.116l0,0l-0.427-0.574l-3.612-1.263   l-0.97,1.837l0,0l-1.076,2.037l-17.35-0.088l-3.226-0.983v7.18h-5.617l-0.87,2.87H2.037C0.912,95.927,0,96.838,0,97.963   S0.912,100,2.037,100H97.76c1.126,0,2.037-0.911,2.037-2.037S98.886,95.927,97.76,95.927z"/><polygon points="44.807,82.873 52.236,82.873 54.771,78.068 62.87,80.902 65.257,84.11 66.717,82.873 68.992,82.873 68.992,66.964    44.807,60.218  "/></g><text x="0" y="115" fill="#000000" font-size="5px" font-weight="bold" font-family="'Helvetica Neue', Helvetica, Arial-Unicode, Arial, Sans-serif">Created by Dairy Free Design</text><text x="0" y="120" fill="#000000" font-size="5px" font-weight="bold" font-family="'Helvetica Neue', Helvetica, Arial-Unicode, Arial, Sans-serif">from the Noun Project</text></svg>