<svg xmlns="http://www.w3.org/2000/svg" xmlns:xlink="http://www.w3.org/1999/xlink" version="1.1" x="0px" y="0px" viewBox="0 0 100 125" enable-background="new 0 0 100 100" xml:space="preserve"><path d="M91.906,43.256c-0.234-0.913-0.882-1.663-1.752-2.026c-11.364-4.733-21.401-11.445-29.83-19.95  C57.588,18.519,53.92,16.999,50,16.999s-7.588,1.521-10.324,4.282c-8.429,8.505-18.466,15.217-29.83,19.95  c-0.87,0.363-1.518,1.113-1.752,2.026s-0.026,1.882,0.562,2.618L17,56h66l8.344-10.126C91.933,45.138,92.141,44.168,91.906,43.256z   M50,47c-4.971,0-9-4.029-9-9s4.029-9,9-9s9,4.029,9,9S54.971,47,50,47z"/><path d="M85.496,69.323c0.478,0.716,0.624,1.603,0.404,2.435c-0.223,0.832-0.788,1.529-1.559,1.915  C71.984,79.849,60.992,82.938,50,82.938s-21.984-3.089-34.342-9.267c-0.771-0.385-1.336-1.083-1.559-1.915  c-0.22-0.832-0.073-1.718,0.404-2.435L20,62h60L85.496,69.323z"/><text x="0" y="115" fill="#000000" font-size="5px" font-weight="bold" font-family="'Helvetica Neue', Helvetica, Arial-Unicode, Arial, Sans-serif">Created by Ayub Irawan</text><text x="0" y="120" fill="#000000" font-size="5px" font-weight="bold" font-family="'Helvetica Neue', Helvetica, Arial-Unicode, Arial, Sans-serif">from the Noun Project</text></svg>