<svg xmlns="http://www.w3.org/2000/svg" xmlns:xlink="http://www.w3.org/1999/xlink" version="1.1" x="0px" y="0px" viewBox="0 0 139 173.75" enable-background="new 0 0 139 139" xml:space="preserve"><path d="M98.436,32.564H40.564c-5.514,0-10,4.486-10,10v53.871c0,5.514,4.486,10,10,10h57.871c5.514,0,10-4.486,10-10V42.564  C108.436,37.05,103.949,32.564,98.436,32.564z M40.564,38.564h57.871c2.206,0,4,1.794,4,4v8.426H36.564v-8.426  C36.564,40.359,38.359,38.564,40.564,38.564z M98.436,100.436H40.564c-2.206,0-4-1.794-4-4V56.99h65.871v39.445  C102.436,98.642,100.642,100.436,98.436,100.436z"/><rect x="43.225" y="42.324" width="5.564" height="6"/><rect x="52.225" y="42.324" width="5.564" height="6"/><rect x="61.225" y="42.324" width="5.564" height="6"/><text x="0" y="154" fill="#000000" font-size="5px" font-weight="bold" font-family="'Helvetica Neue', Helvetica, Arial-Unicode, Arial, Sans-serif">Created by Chanut is Industries</text><text x="0" y="159" fill="#000000" font-size="5px" font-weight="bold" font-family="'Helvetica Neue', Helvetica, Arial-Unicode, Arial, Sans-serif">from the Noun Project</text></svg>