<svg xmlns="http://www.w3.org/2000/svg" xmlns:xlink="http://www.w3.org/1999/xlink" version="1.1" x="0px" y="0px" viewBox="0 0 128 160" style="enable-background:new 0 0 128 128;" xml:space="preserve"><g><path d="M114.599,4.936H46.58c-6.838,0-12.402,5.563-12.402,12.402v24.774c0.946-0.093,1.901-0.14,2.862-0.14   c0.962,0,1.916,0.047,2.862,0.14V17.337c0-3.682,2.996-6.678,6.678-6.678h68.019c3.682,0,6.678,2.996,6.678,6.678v30.535   c-11.383,1.41-20.193,11.115-20.193,22.878c0,11.764,8.811,21.469,20.193,22.879v4.48h-13.144   c-11.064,0-20.035,8.969-20.035,20.033v4.134h-9.295V128h35.796c6.838,0,12.401-5.563,12.401-12.402v-98.26   C127,10.499,121.437,4.936,114.599,4.936z"/><path d="M53.046,98.109H21.034C9.969,98.109,1,107.078,1,118.143V128h72.079v-9.857C73.079,107.078,64.11,98.109,53.046,98.109z"/><circle cx="37.04" cy="70.75" r="23.055"/></g><text x="0" y="143" fill="#000000" font-size="5px" font-weight="bold" font-family="'Helvetica Neue', Helvetica, Arial-Unicode, Arial, Sans-serif">Created by Rflor</text><text x="0" y="148" fill="#000000" font-size="5px" font-weight="bold" font-family="'Helvetica Neue', Helvetica, Arial-Unicode, Arial, Sans-serif">from the Noun Project</text></svg>