<svg xmlns="http://www.w3.org/2000/svg" data-name="Layer 1" viewBox="0 0 1024 1280" x="0px" y="0px"><title>icon-01</title><path fill="#000000" d="M352.88 54.832H88.512A88.032 88.032 0 0 0 0.608 142.72v264.368a88.032 88.032 0 0 0 87.904 87.888H352.88a88.032 88.032 0 0 0 87.904-87.888V142.72a88.032 88.032 0 0 0-87.904-87.904M998 212.704L811.04 25.824a88.032 88.032 0 0 0-124.32 0L660.88 51.68 499.808 212.72a87.28 87.28 0 0 0-25.664 61.968 87.28 87.28 0 0 0 25.664 62.336l25.888 25.872 135.168 135.28 25.888 25.872A87.904 87.904 0 0 0 811.056 524l161.056-161.104L998 337.072a87.952 87.952 0 0 0 0-124.32M352.88 583.04H88.512A88.032 88.032 0 0 0 0.608 670.944v264.368a88.032 88.032 0 0 0 87.904 87.904H352.88a88.032 88.032 0 0 0 87.904-87.904V670.944a88.032 88.032 0 0 0-87.904-87.904m528.208 0H616.72a88.032 88.032 0 0 0-87.904 87.904v264.368a88.032 88.032 0 0 0 87.904 87.904h264.368a88.032 88.032 0 0 0 87.904-87.904V670.944a88.032 88.032 0 0 0-87.904-87.904"/><text x="0" y="1039" fill="#000000" font-size="5px" font-weight="bold" font-family="'Helvetica Neue', Helvetica, Arial-Unicode, Arial, Sans-serif">Created by Clelia Colombo</text><text x="0" y="1044" fill="#000000" font-size="5px" font-weight="bold" font-family="'Helvetica Neue', Helvetica, Arial-Unicode, Arial, Sans-serif">from the Noun Project</text></svg>