<svg xmlns="http://www.w3.org/2000/svg" xmlns:xlink="http://www.w3.org/1999/xlink" version="1.1" x="0px" y="0px" viewBox="0 0 64 80" style="enable-background:new 0 0 64 64;" xml:space="preserve"><g><g><path d="M32,5.3c-0.3,0-0.7-0.2-0.9-0.5c0,0-0.1-0.1-0.1-0.1c-0.2-0.5,0-1.1,0.5-1.3c0.5-0.2,1,0,1.3,0.4c0,0,0,0.1,0.1,0.1    c0.2,0.5,0,1.1-0.4,1.3C32.3,5.2,32.2,5.3,32,5.3z"/></g><path d="M59.3,59.7H41.4L40.3,52c0-0.5,0.3-2.8,0.5-3.4l3.1-4.7c0.2-0.3,0.3-0.6,0.4-1L45,31.8c0-0.1,0.1-0.2,0.1-0.2   c0,0,0.1,0,0.1-0.1l5.2-4.1c1.7-1.1,3-2.7,3.5-4.7l0.9-3.1c0,0,0,0,0,0l0.6-1.9c0.4-1.3,0-2.7-1-3.6c-1-1-2.5-1.2-4-0.7   c0,0,0,0,0,0c0,0,0,0,0,0c0,0,0,0,0,0c0,0,0,0,0,0c-0.2,0.1-0.3,0.1-0.5,0.2c-0.5,0.3-0.9,0.7-1.1,1.4l-0.9,3c-0.6,2-2,3.6-3.8,4.5   l-0.1,0.1l2.3-3.7c0.7-1.1,1-2.3,1-3.6v-6V7.6c0-1.4-0.8-2.7-2.1-3.2c-1.4-0.6-3-0.3-4.3,0.9c-0.1,0.1-0.1,0.1-0.2,0.2c0,0,0,0,0,0   c0,0,0,0,0,0c0,0,0,0,0,0c0,0,0,0,0,0c-0.3,0.4-0.4,0.9-0.4,1.4v5.3c0,1.9-0.7,3.7-1.9,5.1l0,0l0.3-0.7c0.6-1.2,0.7-2.6,0.4-3.9   l-1.1-5.3l0,0l-0.5-2.4c-0.3-1.3-1.2-2.3-2.5-2.7c-1.3-0.4-2.7,0.1-3.8,1.2c0,0,0,0,0,0c0,0,0,0,0,0c0,0,0,0,0,0c0,0,0,0,0,0   C31.2,3.7,31,3.9,31,4c-0.4,0.5-0.5,1.1-0.4,1.8l1.2,5.7c0.3,1.6,0.2,3.3-0.5,4.8l-0.6,1.2l-0.5-4.2C30,11.3,29,9.4,27.4,8   l-2.8-2.5l-2.8-2.5c-0.8-0.7-1.8-1-2.8-0.8c-1,0.1-1.9,0.7-2.5,1.6c0,0,0,0,0,0c0,0,0,0,0,0c-0.4,0.7-0.7,1.6-0.6,2.5   c0,0.6,0.3,1.2,0.8,1.6l5.1,4.4c0.7,0.6,1.1,1.5,1.1,2.4v6.4c0,0.4,0,0.7-0.1,1l-2,6.9c0,0.1-0.1,0.2-0.2,0.2c-0.1,0-0.2,0-0.3-0.1   l-3.7-3.7c-0.3-0.3-0.5-0.8-0.5-1.3v-10c0-0.8-0.3-1.5-0.7-2.2c0,0,0,0,0,0c0,0,0,0,0,0c0,0,0,0,0,0c0,0,0,0,0,0   c-0.7-0.9-1.7-1.4-2.8-1.4c-1.9,0-3.8,2-3.8,3.9l-0.1,3.4L8.2,29.5c0,1.1,0.3,2.2,0.9,3.1L22.5,52c0,0.1,0.1,0.1,0.1,0.2l-1,7.6   H4.8c-0.6,0-1,0.4-1,1s0.4,1,1,1h17.7c0,0,0,0,0.1,0c0,0,0,0,0,0h18c0,0,0,0,0,0c0,0,0,0,0.1,0h18.6c0.6,0,1-0.4,1-1   S59.8,59.7,59.3,59.7z"/></g><text x="0" y="79" fill="#000000" font-size="5px" font-weight="bold" font-family="'Helvetica Neue', Helvetica, Arial-Unicode, Arial, Sans-serif">Created by jafar</text><text x="0" y="84" fill="#000000" font-size="5px" font-weight="bold" font-family="'Helvetica Neue', Helvetica, Arial-Unicode, Arial, Sans-serif">from the Noun Project</text></svg>