<svg xmlns="http://www.w3.org/2000/svg" xmlns:xlink="http://www.w3.org/1999/xlink" version="1.1" x="0px" y="0px" viewBox="0 0 100 125" style="enable-background:new 0 0 100 100;" xml:space="preserve"><path d="M70.735,60.328L50.624,31.61c-0.245-0.36-0.573-0.638-0.965-0.834L26.193,19.043c-2.045-1.015-4.304,0.9-3.649,3.076  l9.475,31.124c0.147,0.475,0.164,0.998,0.016,1.473l-1.571,5.515C14.133,62.554,5.247,68.494,5.247,74.434  c0,8.133,20.995-0.491,45.818,4.909c18.818,4.091,44.182,3.224,44.182-4.909C95.247,68.575,86.689,62.701,70.735,60.328z   M46.157,48.252c-1.587,0-7.773-4.615-8.165-4.893c0.393,0.18,6.578,3.256,8.165,3.256c1.636,0,6.545-3.273,6.545-3.273  S47.793,48.252,46.157,48.252z"/><text x="0" y="115" fill="#000000" font-size="5px" font-weight="bold" font-family="'Helvetica Neue', Helvetica, Arial-Unicode, Arial, Sans-serif">Created by Whitney Rosenberg</text><text x="0" y="120" fill="#000000" font-size="5px" font-weight="bold" font-family="'Helvetica Neue', Helvetica, Arial-Unicode, Arial, Sans-serif">from the Noun Project</text></svg>