<svg xmlns="http://www.w3.org/2000/svg" xmlns:xlink="http://www.w3.org/1999/xlink" version="1.1" x="0px" y="0px" viewBox="0 0 48 60" enable-background="new 0 0 48 48" xml:space="preserve"><g><circle fill="#000000" cx="6.9" cy="10.5" r="4.8"/><path fill="#000000" d="M38.8,38.5c-12.3-2.2-13.3-12.5-13.4-13.2l-0.7-2.1l-7.5-8c1.5-1.5,3.7-3.2,5-2.9c1.1,0.3,2,2.2,2.5,5.2   c0.2,1,1.2,1.8,2.2,1.6c1-0.2,1.7-1.2,1.6-2.2c-0.8-4.8-2.6-7.6-5.3-8.3c-4.7-1.2-9.6,4.8-10.1,5.4L13,14.2l-2.3,4.4l0,0.5   c0.1,1.7,0,3.8-1.3,4.7c-1.7,1.2-5.3,0.1-6.4-0.4c-1-0.4-2.1,0-2.5,1c-0.4,1,0,2.1,1,2.5c0.4,0.2,3,1.3,5.8,1.3   c1.5,0,3-0.3,4.3-1.2c1.4-1,2.4-2.5,2.7-4.6l3.8,4.2c-3.3,1.5-6.5,3.8-6.3,7c0.3,4.9,8.8,7.5,11.4,8.2c1,0.3,2.1-0.4,2.3-1.4   c0.3-1-0.4-2.1-1.4-2.3c-4-1-8.5-3.2-8.6-4.7c0-0.1,0-1.7,6.2-4.2c0.1,0,0.2-0.1,0.3-0.2c1.4,4.3,5.3,11.4,15.8,13.2   c0.1,0,0.2,0,0.3,0c0.9,0,1.7-0.7,1.9-1.6C40.5,39.7,39.8,38.7,38.8,38.5z"/><path fill="#000000" d="M32.7,21.4c0.7-1,1.5-2,2.7-2.6c1.6-0.9,3.3-0.9,5-1.1c3-0.4,5.9-2.1,7.1-4.9c-2.6,1.6-6.6,1.6-9.5,1.3   c-0.7-0.1-1.7-0.2-2.3-0.6c-0.6-0.4-1.1-1-1.7-1.3c-0.7-0.4-2.3-0.9-3.9-1.1c0.7,1.5,1.2,3.2,1.5,5.3c0.5,2.7-1.3,5.2-4,5.7   l0.8,2.6l0,0.3c0.1,0.7,0.7,6,6.1,8.8c3.7-0.5,7.7-2.2,9.8-3.5c-1,0.6-3.9,0-4.9-0.4c-1.2-0.5-5.4-2-6.9-1.8   c7.8-0.6,12.7-3.9,14.9-6C43.7,23.1,38.9,20.9,32.7,21.4z"/></g><text x="0" y="63" fill="#000000" font-size="5px" font-weight="bold" font-family="'Helvetica Neue', Helvetica, Arial-Unicode, Arial, Sans-serif">Created by Creative Stall</text><text x="0" y="68" fill="#000000" font-size="5px" font-weight="bold" font-family="'Helvetica Neue', Helvetica, Arial-Unicode, Arial, Sans-serif">from the Noun Project</text></svg>