<?xml version="1.0"?><svg width="640" height="480" xmlns="http://www.w3.org/2000/svg">
 <title>slip Man</title>
 <metadata id="metadata12390">image/svg+xmlOther map symbolsMohamed IbrahimPublic Domainclker.comother map symbols</metadata>
 <g>
  <title>Layer 1</title>
  <g id="layer1" transform="rotate(-20.8218, 246.143, 239.404)">
   <path fill="#231f20" fill-rule="nonzero" id="path2620" d="m187.172043,103.704208c6.384659,-21.239975 -5.56282,-43.807487 -26.929245,-50.38176c-21.23999,-6.511097 -43.807434,5.436413 -50.381721,26.802841c-6.511055,21.366417 5.562851,43.933884 26.802834,50.508163c21.366394,6.384644 43.933868,-5.562866 50.508133,-26.92926"/>
   <path fill="#231f20" fill-rule="nonzero" id="path2622" d="m262.71283,227.920715l-15.297867,-94.442078l93.493881,-54.870636c4.425751,-2.338425 7.902008,-6.384903 9.356354,-11.442322c2.970093,-10.240429 -2.844604,-20.987 -13.086304,-24.083969c-5.435425,-1.579872 -11.125824,-0.631691 -15.677155,2.08601l-133.25499,78.258808c-4.678146,2.592148 -8.723312,5.942856 -12.200882,10.052109l-56.196754,75.41423l-77.374714,-9.229477c-4.93058,1.706772 -9.165379,5.372635 -11.37825,10.556961c-4.29888,9.798325 0.252411,21.113815 9.98801,25.47551c4.109241,1.706726 8.533691,1.959122 12.642929,0.821304l78.764946,8.912964c2.844574,-1.010971 5.436707,-2.844574 7.52272,-5.182999l31.985947,-40.141663l15.297882,86.793762c2.844559,12.263672 10.998978,22.883392 22.566849,28.635284l68.651382,20.544922l10.113556,78.891846c1.264709,8.975708 7.459961,16.877716 16.43573,20.101563c13.086243,4.55127 27.435944,-2.212891 31.987213,-15.297852c1.453033,-4.107971 1.706757,-8.281281 1.137817,-12.199585l-12.390503,-96.592194c-1.454346,-7.143463 -5.878784,-13.464233 -12.453278,-17.004578l-42.732544,-12.832581l70.737427,-42.859375l86.475983,38.2453c0.568909,0.252441 1.075043,0.506165 1.581177,0.631653c13.084991,4.551331 27.434631,-2.211517 31.985962,-15.297852c4.298889,-12.199554 -1.51712,-25.665115 -13.084991,-30.97496l-98.551331,-44.122757c-0.506134,-0.126862 -0.82132,-0.253723 -1.327454,-0.443359c-7.079346,-2.465286 -14.602112,-1.642654 -20.607727,1.833588l-65.111023,39.762421l0,0l0,0l0,0z"/>
  </g>
 </g>
</svg>