<?xml version="1.0" encoding="iso-8859-1"?>
<!-- Generator: Adobe Illustrator 18.1.1, SVG Export Plug-In . SVG Version: 6.00 Build 0)  -->
<svg version="1.1" id="Capa_1" xmlns="http://www.w3.org/2000/svg" xmlns:xlink="http://www.w3.org/1999/xlink" x="0px" y="0px"
	 viewBox="0 0 312.61 312.61" style="enable-background:new 0 0 312.61 312.61;" xml:space="preserve">
<g>
	<g>
		<path style="fill:#010002;" d="M243.496,241.69c0.593-9.007,2.774-55.255-12.151-81.755l-2.214-3.911l4.096-1.882
			c2.176-1.006,8.208-2.774,19.559-6.086c11.297-3.285,31.96-9.295,39.101-12.504c-5.287-8.507-21.887-14.8-36.572-20.375
			c-12.135-4.596-23.584-8.931-30.317-14.702c-7.038-6.005-12.488-11.634-17.737-17.084c-8.768-9.056-16.246-16.807-27.989-22.985
			c-4.172-2.176-13.016-3.389-24.933-3.389c-8.322,0-15.104,0.577-15.17,0.577l-1.909,0.169l-1.36-1.343
			c-19.287-18.928-32.803-21.011-41.745-22.387c-4.221-0.664-7.87-1.229-11.009-3.231c-2.883-1.849-6.929-5.874-12.048-10.954
			C64.067,12.858,51.111,0,46.042,0c-6.462,0.718-9.306,5.787-9.725,17.492l-0.076,1.92l0.56-0.261l-0.821,7.201
			c-0.06,0.528-0.163,1.273-0.413,2.034c1.164,4.4,2.943,7.566,4.819,10.927c1.909,3.399,3.878,6.897,5.303,11.743l0.196,0.68
			l-0.038,0.691c-0.228,4.96-3.41,8.033-8.289,8.033c-2.763,0-5.771-0.897-8.953-1.833c-3.361-0.995-6.282-1.599-7.881-1.626
			c4.803,9.214,25.118,45.645,66.052,88.564c35.49,27.233,18.558,126.061,11.846,158.467c14.386-6.908,47.396-21.125,75.44-21.125
			c15.262,0,27.059,4.242,35.044,12.613c10.791,11.319,22.327,17.068,34.299,17.09c5.716,0,10.427-1.338,13.609-2.605
			c-9.85-14.479-12.842-55.533-13.532-67.967L243.496,241.69z M183.737,89.195c-0.713,1.414-2.143,2.29-3.709,2.29
			c-0.647,0-1.262-0.147-1.844-0.441c-4.373-2.197-8.594-5.553-12.651-8.811c-2.551-2.029-5.124-4.101-7.653-5.798
			c-0.919-0.604-1.545-1.545-1.762-2.622c-0.223-1.082,0-2.187,0.615-3.106c1.218-1.822,3.894-2.355,5.727-1.142
			c1.191,0.783,2.861,1.164,4.65,1.561c2.121,0.473,4.297,0.957,5.842,2.197c1.697,1.365,2.937,2.856,4.15,4.308
			c1.528,1.822,2.845,3.405,4.765,4.368C183.938,83.022,184.743,87.166,183.737,89.195z"/>
	</g>
</g>
<g>
</g>
<g>
</g>
<g>
</g>
<g>
</g>
<g>
</g>
<g>
</g>
<g>
</g>
<g>
</g>
<g>
</g>
<g>
</g>
<g>
</g>
<g>
</g>
<g>
</g>
<g>
</g>
<g>
</g>
</svg>
